M48
METRIC,TZ
T1C0.200
T2C0.300
T3C0.400
T4C0.500
T5C0.600
T6C1.000
T7C3.200
%
G90
G05
T1
X130250Y-107250
X130250Y-112250
X130250Y-113250
X130250Y-114250
X130250Y-115250
X130250Y-116250
X131250Y-107250
X131250Y-112250
X131250Y-113250
X131250Y-114250
X131250Y-115250
X131250Y-116250
X132250Y-114250
X132250Y-115250
X136250Y-122250
X136250Y-123250
X137250Y-122250
X137250Y-123250
X138250Y-122250
X138250Y-123250
X138750Y-113500
X139250Y-122250
X139250Y-123250
X139500Y-113500
X140250Y-103250
X140250Y-104250
X140250Y-122250
X140250Y-123250
X148250Y-101250
X149250Y-101250
X150250Y-101250
X151250Y-101250
X152250Y-101250
X153250Y-101250
X154250Y-101250
X154250Y-110250
X154250Y-123250
X155250Y-101250
X155250Y-102250
X155250Y-110250
X155250Y-122250
X155250Y-123250
X156250Y-101250
X156250Y-102250
X156250Y-110250
X157250Y-101250
X157250Y-102250
X157250Y-110250
X158250Y-101250
X158250Y-110250
X158250Y-111250
X159250Y-101250
X159250Y-110250
X159250Y-111250
X160250Y-101250
X160250Y-107250
X160250Y-108250
X160250Y-109250
X160250Y-110250
X160250Y-111250
X160250Y-121250
X160250Y-122250
X160250Y-123250
X161250Y-101250
X161250Y-106250
X161250Y-110250
X161250Y-111250
X161250Y-121250
X161250Y-122250
X161250Y-123250
X162250Y-101250
X162250Y-105250
X162250Y-106250
X162250Y-111250
X163250Y-101250
X163250Y-105250
X163250Y-106250
X164250Y-101250
X164250Y-105250
X164250Y-106250
X165250Y-101250
X165250Y-107250
X166250Y-101250
X166250Y-122250
X166250Y-123250
X167250Y-123250
X168250Y-123250
X169250Y-123250
X170250Y-111250
X170250Y-123250
X171250Y-123250
X172250Y-123250
X175250Y-107250
X175250Y-108250
X175250Y-109250
X175250Y-110250
X175250Y-111250
X175250Y-112250
X176250Y-107250
X176250Y-108250
X176250Y-109250
X176250Y-110250
X176250Y-111250
X176250Y-112250
X179250Y-106250
X180250Y-106250
X181250Y-106250
X182250Y-106250
X183250Y-106250
X184250Y-106250
X184250Y-107250
X184250Y-108250
X184250Y-109250
X184250Y-110250
X184250Y-111250
X189250Y-112250
X189250Y-113250
X189250Y-117250
X190250Y-113250
X190250Y-117250
X190250Y-118250
X191250Y-113250
X191250Y-117250
X191250Y-118250
X192250Y-102250
X192250Y-113250
X192250Y-117250
X192250Y-118250
X193250Y-101250
X193250Y-102250
X193250Y-113250
X193250Y-117250
X193250Y-118250
X194250Y-101250
X194250Y-113250
X194250Y-117250
X194250Y-118250
X195250Y-112250
X195250Y-113250
X196250Y-111250
X196250Y-112250
X196250Y-113250
X197250Y-110250
X197250Y-111250
X197250Y-112250
X197250Y-113250
X198250Y-110250
X198250Y-111250
X198250Y-112250
X198250Y-113250
X199250Y-110250
X199250Y-111250
X199250Y-112250
X200250Y-106250
X200250Y-107250
X200250Y-108250
X200250Y-109250
X200250Y-110250
X200250Y-111250
X201250Y-106250
X201250Y-107250
X201250Y-108250
X201250Y-109250
X201250Y-110250
X202250Y-106250
X202250Y-107250
X202250Y-108250
X202250Y-109250
X202250Y-110250
X205250Y-107250
X205250Y-123250
X206250Y-116250
X206250Y-123250
X207250Y-115250
X207250Y-116250
X207250Y-123250
X208250Y-114250
X208250Y-115250
X208250Y-116250
X208250Y-117250
X208250Y-123250
X209250Y-113250
X209250Y-114250
X209250Y-115250
X209250Y-116250
X209250Y-117250
X209250Y-118250
X209250Y-119250
X209250Y-123250
X210250Y-112250
X210250Y-113250
X210250Y-114250
X210250Y-115250
X210250Y-116250
X210250Y-117250
X210250Y-118250
X210250Y-119250
X210250Y-123250
X211250Y-111250
X211250Y-112250
X211250Y-113250
X211250Y-114250
X211250Y-115250
X211250Y-116250
X211250Y-117250
X211250Y-118250
X211250Y-119250
X211250Y-123250
X212250Y-110250
X212250Y-111250
X212250Y-112250
X212250Y-113250
X212250Y-114250
X212250Y-115250
X212250Y-116250
X212250Y-117250
X212250Y-118250
X212250Y-119250
X212250Y-123250
X213250Y-109250
X213250Y-110250
X213250Y-111250
X213250Y-112250
X213250Y-113250
X213250Y-114250
X213250Y-115250
X213250Y-116250
X213250Y-117250
X213250Y-118250
X213250Y-119250
X213250Y-123250
X214250Y-109250
X214250Y-119250
X214250Y-123250
X215250Y-103250
X215250Y-109250
X215250Y-119250
X215250Y-123250
X216250Y-101250
X216250Y-102250
X216250Y-103250
X216250Y-109250
X216250Y-119250
X216250Y-123250
X217250Y-101250
X217250Y-102250
X217250Y-103250
X217250Y-109250
X217250Y-119250
X217250Y-123250
X218250Y-106250
X218250Y-107250
X218250Y-108250
X218250Y-109250
X218250Y-123250
X219250Y-106250
X219250Y-107250
X219250Y-108250
X219250Y-109250
X219250Y-123250
X220250Y-106250
X220250Y-107250
X220250Y-108250
X220250Y-109250
X220250Y-123250
X221250Y-106250
X221250Y-107250
X221250Y-108250
X221250Y-109250
X221250Y-123250
X222250Y-106250
X222250Y-107250
X222250Y-108250
X222250Y-109250
X222250Y-123250
T2
X143250Y-121500
X146788Y-105500
X147275Y-114595
X147275Y-117135
X151500Y-122250
X156000Y-115750
X158120Y-120675
X158120Y-121325
X163880Y-120675
X163880Y-121325
X171000Y-117750
X177750Y-104500
X180500Y-120250
X181000Y-113250
X182250Y-113250
X183750Y-113250
T3
X144461Y-110651
X146250Y-111250
X149075Y-108750
X149750Y-116500
X168650Y-104500
X178379Y-118629
X179121Y-119371
T4
X138000Y-105500
X152500Y-120000
X166250Y-117500
T6
X203675Y-101000
X206215Y-101000
X208755Y-101000
X211295Y-101000
X213835Y-101000
T7
X131500Y-102750
X131500Y-122750
X222000Y-101750
T5
G00X130325Y-109680
M15
G01X129525Y-109680
M16
G05
G00X130325Y-118320
M15
G01X129525Y-118320
M16
G05
G00X134655Y-109680
M15
G01X133555Y-109680
M16
G05
G00X134655Y-118320
M15
G01X133555Y-118320
M16
G05
M30
