%TF.GenerationSoftware,KiCad,Pcbnew,8.0.8*%
%TF.CreationDate,2025-04-24T21:45:02+02:00*%
%TF.ProjectId,LD2420_Radar_ESP32,4c443234-3230-45f5-9261-6461725f4553,rev?*%
%TF.SameCoordinates,Original*%
%TF.FileFunction,Paste,Top*%
%TF.FilePolarity,Positive*%
%FSLAX46Y46*%
G04 Gerber Fmt 4.6, Leading zero omitted, Abs format (unit mm)*
G04 Created by KiCad (PCBNEW 8.0.8) date 2025-04-24 21:45:02*
%MOMM*%
%LPD*%
G01*
G04 APERTURE LIST*
G04 Aperture macros list*
%AMRoundRect*
0 Rectangle with rounded corners*
0 $1 Rounding radius*
0 $2 $3 $4 $5 $6 $7 $8 $9 X,Y pos of 4 corners*
0 Add a 4 corners polygon primitive as box body*
4,1,4,$2,$3,$4,$5,$6,$7,$8,$9,$2,$3,0*
0 Add four circle primitives for the rounded corners*
1,1,$1+$1,$2,$3*
1,1,$1+$1,$4,$5*
1,1,$1+$1,$6,$7*
1,1,$1+$1,$8,$9*
0 Add four rect primitives between the rounded corners*
20,1,$1+$1,$2,$3,$4,$5,0*
20,1,$1+$1,$4,$5,$6,$7,0*
20,1,$1+$1,$6,$7,$8,$9,0*
20,1,$1+$1,$8,$9,$2,$3,0*%
%AMFreePoly0*
4,1,6,0.600000,-0.600000,-0.600000,-0.600000,-0.600000,0.000000,0.000000,0.600000,0.600000,0.600000,0.600000,-0.600000,0.600000,-0.600000,$1*%
G04 Aperture macros list end*
%ADD10C,0.010000*%
%ADD11RoundRect,0.250000X0.475000X-0.250000X0.475000X0.250000X-0.475000X0.250000X-0.475000X-0.250000X0*%
%ADD12R,1.700000X0.900000*%
%ADD13RoundRect,0.250000X-0.262500X-0.450000X0.262500X-0.450000X0.262500X0.450000X-0.262500X0.450000X0*%
%ADD14RoundRect,0.150000X-0.512500X-0.150000X0.512500X-0.150000X0.512500X0.150000X-0.512500X0.150000X0*%
%ADD15RoundRect,0.250000X0.262500X0.450000X-0.262500X0.450000X-0.262500X-0.450000X0.262500X-0.450000X0*%
%ADD16RoundRect,0.250000X-0.250000X-0.475000X0.250000X-0.475000X0.250000X0.475000X-0.250000X0.475000X0*%
%ADD17RoundRect,0.243750X-0.243750X-0.456250X0.243750X-0.456250X0.243750X0.456250X-0.243750X0.456250X0*%
%ADD18R,1.970000X0.600000*%
%ADD19RoundRect,0.250000X-0.475000X0.250000X-0.475000X-0.250000X0.475000X-0.250000X0.475000X0.250000X0*%
%ADD20RoundRect,0.250000X-0.450000X0.262500X-0.450000X-0.262500X0.450000X-0.262500X0.450000X0.262500X0*%
%ADD21RoundRect,0.150000X-0.425000X0.150000X-0.425000X-0.150000X0.425000X-0.150000X0.425000X0.150000X0*%
%ADD22RoundRect,0.075000X-0.500000X0.075000X-0.500000X-0.075000X0.500000X-0.075000X0.500000X0.075000X0*%
%ADD23O,2.100000X1.000000*%
%ADD24O,1.800000X1.000000*%
%ADD25RoundRect,0.250000X0.450000X-0.262500X0.450000X0.262500X-0.450000X0.262500X-0.450000X-0.262500X0*%
%ADD26R,0.625000X0.250000*%
%ADD27R,0.700000X0.450000*%
%ADD28R,0.575000X0.450000*%
%ADD29RoundRect,0.250000X-0.650000X1.000000X-0.650000X-1.000000X0.650000X-1.000000X0.650000X1.000000X0*%
%ADD30R,0.800000X0.400000*%
%ADD31R,0.400000X0.800000*%
%ADD32FreePoly0,0.000000*%
%ADD33R,1.200000X1.200000*%
%ADD34R,0.800000X0.800000*%
%ADD35RoundRect,0.050000X0.730000X0.150000X-0.730000X0.150000X-0.730000X-0.150000X0.730000X-0.150000X0*%
%ADD36RoundRect,0.250000X0.250000X0.475000X-0.250000X0.475000X-0.250000X-0.475000X0.250000X-0.475000X0*%
%ADD37RoundRect,0.066250X-0.288750X-0.198750X0.288750X-0.198750X0.288750X0.198750X-0.288750X0.198750X0*%
G04 APERTURE END LIST*
D10*
%TO.C,U5*%
X150513000Y-117544000D02*
X148987000Y-117544000D01*
X148987000Y-115456000D01*
X150513000Y-115456000D01*
X150513000Y-117544000D01*
G36*
X150513000Y-117544000D02*
G01*
X148987000Y-117544000D01*
X148987000Y-115456000D01*
X150513000Y-115456000D01*
X150513000Y-117544000D01*
G37*
%TD*%
D11*
%TO.C,C8*%
X163750000Y-103150000D03*
X163750000Y-101250000D03*
%TD*%
D12*
%TO.C,RESET1*%
X192000000Y-107600000D03*
X192000000Y-111000000D03*
%TD*%
D13*
%TO.C,R2*%
X138250000Y-109000000D03*
X140075000Y-109000000D03*
%TD*%
%TO.C,R1*%
X194817500Y-104220000D03*
X196642500Y-104220000D03*
%TD*%
D14*
%TO.C,U3*%
X146787500Y-104550000D03*
X146787500Y-105500000D03*
X146787500Y-106450000D03*
X149062500Y-106450000D03*
X149062500Y-104550000D03*
%TD*%
D15*
%TO.C,R13*%
X145075000Y-121500000D03*
X143250000Y-121500000D03*
%TD*%
D16*
%TO.C,C6*%
X164350000Y-115250000D03*
X166250000Y-115250000D03*
%TD*%
D17*
%TO.C,D1*%
X155800000Y-107750000D03*
X157675000Y-107750000D03*
%TD*%
D15*
%TO.C,R15*%
X156912500Y-117250000D03*
X155087500Y-117250000D03*
%TD*%
D13*
%TO.C,R3*%
X151675000Y-104250000D03*
X153500000Y-104250000D03*
%TD*%
D12*
%TO.C,BOOT2*%
X167500000Y-111450000D03*
X167500000Y-108050000D03*
%TD*%
D13*
%TO.C,R6*%
X182175000Y-122750000D03*
X184000000Y-122750000D03*
%TD*%
D18*
%TO.C,U5*%
X147275000Y-114595000D03*
X147275000Y-115865000D03*
X147275000Y-117135000D03*
X147275000Y-118405000D03*
X152225000Y-118405000D03*
X152225000Y-117135000D03*
X152225000Y-115865000D03*
X152225000Y-114595000D03*
%TD*%
D19*
%TO.C,C7*%
X155750000Y-112750000D03*
X155750000Y-114650000D03*
%TD*%
D20*
%TO.C,R8*%
X196500000Y-119425000D03*
X196500000Y-121250000D03*
%TD*%
D13*
%TO.C,R4*%
X155750000Y-104250000D03*
X157575000Y-104250000D03*
%TD*%
D21*
%TO.C,USB_C1*%
X134680000Y-110800000D03*
X134680000Y-111600000D03*
D22*
X134680000Y-112750000D03*
X134680000Y-113750000D03*
X134680000Y-114250000D03*
X134680000Y-115250000D03*
D21*
X134680000Y-116400000D03*
X134680000Y-117200000D03*
X134680000Y-117200000D03*
X134680000Y-116400000D03*
D22*
X134680000Y-115750000D03*
X134680000Y-114750000D03*
X134680000Y-113250000D03*
X134680000Y-112250000D03*
D21*
X134680000Y-111600000D03*
X134680000Y-110800000D03*
D23*
X134105000Y-109680000D03*
D24*
X129925000Y-109680000D03*
D23*
X134105000Y-118320000D03*
D24*
X129925000Y-118320000D03*
%TD*%
D25*
%TO.C,R12*%
X143500000Y-114575000D03*
X143500000Y-112750000D03*
%TD*%
D17*
%TO.C,D3*%
X147200000Y-123790000D03*
X149075000Y-123790000D03*
%TD*%
D14*
%TO.C,U6*%
X159112500Y-112800000D03*
X159112500Y-113750000D03*
X159112500Y-114700000D03*
X161387500Y-114700000D03*
X161387500Y-113750000D03*
X161387500Y-112800000D03*
%TD*%
D26*
%TO.C,U2*%
X138700000Y-112500000D03*
X138700000Y-113000000D03*
D27*
X138737500Y-113500000D03*
D26*
X138700000Y-114000000D03*
X138700000Y-114500000D03*
X139475000Y-114500000D03*
X139475000Y-114000000D03*
D28*
X139500000Y-113500000D03*
D26*
X139475000Y-113000000D03*
X139475000Y-112500000D03*
%TD*%
D29*
%TO.C,D5*%
X143000000Y-101500000D03*
X143000000Y-105500000D03*
%TD*%
D17*
%TO.C,D2*%
X143200000Y-123750000D03*
X145075000Y-123750000D03*
%TD*%
D20*
%TO.C,R9*%
X206750000Y-119425000D03*
X206750000Y-121250000D03*
%TD*%
D16*
%TO.C,C4*%
X147175000Y-108750000D03*
X149075000Y-108750000D03*
%TD*%
D15*
%TO.C,R16*%
X166250000Y-117500000D03*
X164425000Y-117500000D03*
%TD*%
D30*
%TO.C,U1*%
X172850000Y-103800000D03*
X172850000Y-104650000D03*
X172850000Y-105500000D03*
X172850000Y-106350000D03*
X172850000Y-107200000D03*
X172850000Y-108050000D03*
X172850000Y-108900000D03*
X172850000Y-109750000D03*
X172850000Y-110600000D03*
X172850000Y-111450000D03*
X172850000Y-112300000D03*
X172850000Y-113150000D03*
X172850000Y-114000000D03*
X172850000Y-114850000D03*
X172850000Y-115700000D03*
D31*
X173900000Y-116750000D03*
X174750000Y-116750000D03*
X175600000Y-116750000D03*
X176450000Y-116750000D03*
X177300000Y-116750000D03*
X178150000Y-116750000D03*
X179000000Y-116750000D03*
X179850000Y-116750000D03*
X180700000Y-116750000D03*
X181550000Y-116750000D03*
X182400000Y-116750000D03*
X183250000Y-116750000D03*
X184100000Y-116750000D03*
X184950000Y-116750000D03*
X185800000Y-116750000D03*
D30*
X186850000Y-115700000D03*
X186850000Y-114850000D03*
X186850000Y-114000000D03*
X186850000Y-113150000D03*
X186850000Y-112300000D03*
X186850000Y-111450000D03*
X186850000Y-110600000D03*
X186850000Y-109750000D03*
X186850000Y-108900000D03*
X186850000Y-108050000D03*
X186850000Y-107200000D03*
X186850000Y-106350000D03*
X186850000Y-105500000D03*
X186850000Y-104650000D03*
X186850000Y-103800000D03*
D31*
X185800000Y-102750000D03*
X184950000Y-102750000D03*
X184100000Y-102750000D03*
X183250000Y-102750000D03*
X182400000Y-102750000D03*
X181550000Y-102750000D03*
X180700000Y-102750000D03*
X179850000Y-102750000D03*
X179000000Y-102750000D03*
X178150000Y-102750000D03*
X177300000Y-102750000D03*
X176450000Y-102750000D03*
X175600000Y-102750000D03*
X174750000Y-102750000D03*
X173900000Y-102750000D03*
D32*
X178200000Y-108100000D03*
D33*
X178200000Y-109750000D03*
X178200000Y-111400000D03*
X179850000Y-108100000D03*
X179850000Y-109750000D03*
X179850000Y-111400000D03*
X181500000Y-108100000D03*
X181500000Y-109750000D03*
X181500000Y-111400000D03*
D34*
X172850000Y-102750000D03*
X172850000Y-116750000D03*
X186850000Y-116750000D03*
X186850000Y-102750000D03*
%TD*%
D29*
%TO.C,D6*%
X138000000Y-101500000D03*
X138000000Y-105500000D03*
%TD*%
D15*
%TO.C,R14*%
X149150000Y-121500000D03*
X147325000Y-121500000D03*
%TD*%
D16*
%TO.C,C2*%
X166750000Y-104500000D03*
X168650000Y-104500000D03*
%TD*%
D35*
%TO.C,Q1*%
X163880000Y-121975000D03*
X163880000Y-121325000D03*
X163880000Y-120675000D03*
X163880000Y-120025000D03*
X158120000Y-120025000D03*
X158120000Y-120675000D03*
X158120000Y-121325000D03*
X158120000Y-121975000D03*
%TD*%
D16*
%TO.C,C1*%
X190350000Y-104250000D03*
X192250000Y-104250000D03*
%TD*%
D13*
%TO.C,R7*%
X182175000Y-119750000D03*
X184000000Y-119750000D03*
%TD*%
%TO.C,R5*%
X151675000Y-107750000D03*
X153500000Y-107750000D03*
%TD*%
%TO.C,R11*%
X186585000Y-119750000D03*
X188410000Y-119750000D03*
%TD*%
D36*
%TO.C,C3*%
X145175000Y-108750000D03*
X143275000Y-108750000D03*
%TD*%
D37*
%TO.C,U4*%
X201015000Y-119250000D03*
X201015000Y-120250000D03*
X201015000Y-121250000D03*
X202985000Y-121250000D03*
X202985000Y-120250000D03*
X202985000Y-119250000D03*
%TD*%
D13*
%TO.C,R10*%
X186585000Y-122750000D03*
X188410000Y-122750000D03*
%TD*%
D11*
%TO.C,C5*%
X196500000Y-117650000D03*
X196500000Y-115750000D03*
%TD*%
M02*
