M48
; DRILL file {KiCad 8.0.8} date 2025-04-24T21:45:02+0200
; FORMAT={-:-/ absolute / metric / decimal}
; #@! TF.CreationDate,2025-04-24T21:45:02+02:00
; #@! TF.GenerationSoftware,Kicad,Pcbnew,8.0.8
; #@! TF.FileFunction,Plated,1,2,PTH
FMAT,2
METRIC
; #@! TA.AperFunction,Plated,PTH,ViaDrill
T1C0.200
; #@! TA.AperFunction,Plated,PTH,ViaDrill
T2C0.300
; #@! TA.AperFunction,Plated,PTH,ViaDrill
T3C0.400
; #@! TA.AperFunction,Plated,PTH,ViaDrill
T4C0.500
; #@! TA.AperFunction,Plated,PTH,ComponentDrill
T5C0.600
; #@! TA.AperFunction,Plated,PTH,ComponentDrill
T6C1.000
; #@! TA.AperFunction,Plated,PTH,ComponentDrill
T7C3.200
%
G90
G05
T1
X130.25Y-107.25
X130.25Y-112.25
X130.25Y-113.25
X130.25Y-114.25
X130.25Y-115.25
X130.25Y-116.25
X131.25Y-107.25
X131.25Y-112.25
X131.25Y-113.25
X131.25Y-114.25
X131.25Y-115.25
X131.25Y-116.25
X132.25Y-114.25
X132.25Y-115.25
X136.25Y-122.25
X136.25Y-123.25
X137.25Y-122.25
X137.25Y-123.25
X138.25Y-122.25
X138.25Y-123.25
X138.75Y-113.5
X139.25Y-122.25
X139.25Y-123.25
X139.5Y-113.5
X140.25Y-103.25
X140.25Y-104.25
X140.25Y-122.25
X140.25Y-123.25
X148.25Y-101.25
X149.25Y-101.25
X150.25Y-101.25
X151.25Y-101.25
X152.25Y-101.25
X153.25Y-101.25
X154.25Y-101.25
X154.25Y-110.25
X154.25Y-123.25
X155.25Y-101.25
X155.25Y-102.25
X155.25Y-110.25
X155.25Y-122.25
X155.25Y-123.25
X156.25Y-101.25
X156.25Y-102.25
X156.25Y-110.25
X157.25Y-101.25
X157.25Y-102.25
X157.25Y-110.25
X158.25Y-101.25
X158.25Y-110.25
X158.25Y-111.25
X159.25Y-101.25
X159.25Y-110.25
X159.25Y-111.25
X160.25Y-101.25
X160.25Y-107.25
X160.25Y-108.25
X160.25Y-109.25
X160.25Y-110.25
X160.25Y-111.25
X160.25Y-121.25
X160.25Y-122.25
X160.25Y-123.25
X161.25Y-101.25
X161.25Y-106.25
X161.25Y-110.25
X161.25Y-111.25
X161.25Y-121.25
X161.25Y-122.25
X161.25Y-123.25
X162.25Y-101.25
X162.25Y-105.25
X162.25Y-106.25
X162.25Y-111.25
X163.25Y-101.25
X163.25Y-105.25
X163.25Y-106.25
X164.25Y-101.25
X164.25Y-105.25
X164.25Y-106.25
X165.25Y-101.25
X165.25Y-107.25
X166.25Y-101.25
X166.25Y-122.25
X166.25Y-123.25
X167.25Y-123.25
X168.25Y-123.25
X169.25Y-123.25
X170.25Y-111.25
X170.25Y-123.25
X171.25Y-123.25
X172.25Y-123.25
X175.25Y-107.25
X175.25Y-108.25
X175.25Y-109.25
X175.25Y-110.25
X175.25Y-111.25
X175.25Y-112.25
X176.25Y-107.25
X176.25Y-108.25
X176.25Y-109.25
X176.25Y-110.25
X176.25Y-111.25
X176.25Y-112.25
X179.25Y-106.25
X180.25Y-106.25
X181.25Y-106.25
X182.25Y-106.25
X183.25Y-106.25
X184.25Y-106.25
X184.25Y-107.25
X184.25Y-108.25
X184.25Y-109.25
X184.25Y-110.25
X184.25Y-111.25
X189.25Y-112.25
X189.25Y-113.25
X189.25Y-117.25
X190.25Y-113.25
X190.25Y-117.25
X190.25Y-118.25
X191.25Y-113.25
X191.25Y-117.25
X191.25Y-118.25
X192.25Y-102.25
X192.25Y-113.25
X192.25Y-117.25
X192.25Y-118.25
X193.25Y-101.25
X193.25Y-102.25
X193.25Y-113.25
X193.25Y-117.25
X193.25Y-118.25
X194.25Y-101.25
X194.25Y-113.25
X194.25Y-117.25
X194.25Y-118.25
X195.25Y-112.25
X195.25Y-113.25
X196.25Y-111.25
X196.25Y-112.25
X196.25Y-113.25
X197.25Y-110.25
X197.25Y-111.25
X197.25Y-112.25
X197.25Y-113.25
X198.25Y-110.25
X198.25Y-111.25
X198.25Y-112.25
X198.25Y-113.25
X199.25Y-110.25
X199.25Y-111.25
X199.25Y-112.25
X200.25Y-106.25
X200.25Y-107.25
X200.25Y-108.25
X200.25Y-109.25
X200.25Y-110.25
X200.25Y-111.25
X201.25Y-106.25
X201.25Y-107.25
X201.25Y-108.25
X201.25Y-109.25
X201.25Y-110.25
X202.25Y-106.25
X202.25Y-107.25
X202.25Y-108.25
X202.25Y-109.25
X202.25Y-110.25
X205.25Y-107.25
X205.25Y-123.25
X206.25Y-116.25
X206.25Y-123.25
X207.25Y-115.25
X207.25Y-116.25
X207.25Y-123.25
X208.25Y-114.25
X208.25Y-115.25
X208.25Y-116.25
X208.25Y-117.25
X208.25Y-123.25
X209.25Y-113.25
X209.25Y-114.25
X209.25Y-115.25
X209.25Y-116.25
X209.25Y-117.25
X209.25Y-118.25
X209.25Y-119.25
X209.25Y-123.25
X210.25Y-112.25
X210.25Y-113.25
X210.25Y-114.25
X210.25Y-115.25
X210.25Y-116.25
X210.25Y-117.25
X210.25Y-118.25
X210.25Y-119.25
X210.25Y-123.25
X211.25Y-111.25
X211.25Y-112.25
X211.25Y-113.25
X211.25Y-114.25
X211.25Y-115.25
X211.25Y-116.25
X211.25Y-117.25
X211.25Y-118.25
X211.25Y-119.25
X211.25Y-123.25
X212.25Y-110.25
X212.25Y-111.25
X212.25Y-112.25
X212.25Y-113.25
X212.25Y-114.25
X212.25Y-115.25
X212.25Y-116.25
X212.25Y-117.25
X212.25Y-118.25
X212.25Y-119.25
X212.25Y-123.25
X213.25Y-109.25
X213.25Y-110.25
X213.25Y-111.25
X213.25Y-112.25
X213.25Y-113.25
X213.25Y-114.25
X213.25Y-115.25
X213.25Y-116.25
X213.25Y-117.25
X213.25Y-118.25
X213.25Y-119.25
X213.25Y-123.25
X214.25Y-109.25
X214.25Y-119.25
X214.25Y-123.25
X215.25Y-103.25
X215.25Y-109.25
X215.25Y-119.25
X215.25Y-123.25
X216.25Y-101.25
X216.25Y-102.25
X216.25Y-103.25
X216.25Y-109.25
X216.25Y-119.25
X216.25Y-123.25
X217.25Y-101.25
X217.25Y-102.25
X217.25Y-103.25
X217.25Y-109.25
X217.25Y-119.25
X217.25Y-123.25
X218.25Y-106.25
X218.25Y-107.25
X218.25Y-108.25
X218.25Y-109.25
X218.25Y-123.25
X219.25Y-106.25
X219.25Y-107.25
X219.25Y-108.25
X219.25Y-109.25
X219.25Y-123.25
X220.25Y-106.25
X220.25Y-107.25
X220.25Y-108.25
X220.25Y-109.25
X220.25Y-123.25
X221.25Y-106.25
X221.25Y-107.25
X221.25Y-108.25
X221.25Y-109.25
X221.25Y-123.25
X222.25Y-106.25
X222.25Y-107.25
X222.25Y-108.25
X222.25Y-109.25
X222.25Y-123.25
T2
X143.25Y-121.5
X146.787Y-105.5
X147.275Y-114.595
X147.275Y-117.135
X151.5Y-122.25
X156.0Y-115.75
X158.12Y-120.675
X158.12Y-121.325
X163.88Y-120.675
X163.88Y-121.325
X171.0Y-117.75
X177.75Y-104.5
X180.5Y-120.25
X181.0Y-113.25
X182.25Y-113.25
X183.75Y-113.25
T3
X144.461Y-110.651
X146.25Y-111.25
X149.075Y-108.75
X149.75Y-116.5
X168.65Y-104.5
X178.379Y-118.629
X179.121Y-119.371
T4
X138.0Y-105.5
X152.5Y-120.0
X166.25Y-117.5
T6
X203.675Y-101.0
X206.215Y-101.0
X208.755Y-101.0
X211.295Y-101.0
X213.835Y-101.0
T7
X131.5Y-102.75
X131.5Y-122.75
X222.0Y-101.75
T5
G00X130.325Y-109.68
M15
G01X129.525Y-109.68
M16
G05
G00X130.325Y-118.32
M15
G01X129.525Y-118.32
M16
G05
G00X134.655Y-109.68
M15
G01X133.555Y-109.68
M16
G05
G00X134.655Y-118.32
M15
G01X133.555Y-118.32
M16
G05
M30
