%TF.GenerationSoftware,KiCad,Pcbnew,8.0.8*%
%TF.CreationDate,2025-04-24T21:45:02+02:00*%
%TF.ProjectId,LD2420_Radar_ESP32,4c443234-3230-45f5-9261-6461725f4553,rev?*%
%TF.SameCoordinates,Original*%
%TF.FileFunction,Legend,Bot*%
%TF.FilePolarity,Positive*%
%FSLAX46Y46*%
G04 Gerber Fmt 4.6, Leading zero omitted, Abs format (unit mm)*
G04 Created by KiCad (PCBNEW 8.0.8) date 2025-04-24 21:45:02*
%MOMM*%
%LPD*%
G01*
G04 APERTURE LIST*
%ADD10C,0.120000*%
%ADD11C,0.350000*%
%ADD12O,1.700000X0.600000*%
%ADD13O,1.400000X0.600000*%
G04 APERTURE END LIST*
D10*
%TO.C,BT1*%
X138500000Y-108000000D02*
X136000000Y-108000000D01*
X141110000Y-103580000D02*
X141110000Y-110560000D01*
X141110000Y-124440000D02*
X141110000Y-117440000D01*
X218390000Y-103560000D02*
X141110000Y-103560000D01*
X218390000Y-110560000D02*
X218390000Y-103560000D01*
X218390000Y-117440000D02*
X218390000Y-124440000D01*
X218390000Y-124440000D02*
X141110000Y-124440000D01*
X221000000Y-108000000D02*
X223500000Y-108000000D01*
X222250000Y-106750000D02*
X222250000Y-109250000D01*
X222750000Y-110560000D02*
X218390000Y-110560000D01*
%TO.C,JP1*%
X220000000Y-121300000D02*
X220000000Y-119900000D01*
X220700000Y-119200000D02*
X221300000Y-119200000D01*
X221300000Y-122000000D02*
X220700000Y-122000000D01*
X222000000Y-119900000D02*
X222000000Y-121300000D01*
X220000000Y-119900000D02*
G75*
G02*
X220700000Y-119200000I700000J0D01*
G01*
X220700000Y-122000000D02*
G75*
G02*
X220000000Y-121300000I-1J699999D01*
G01*
X221300000Y-119200000D02*
G75*
G02*
X222000000Y-119900000I0J-700000D01*
G01*
X222000000Y-121300000D02*
G75*
G02*
X221300000Y-122000000I-699999J-1D01*
G01*
%TD*%
D11*
X222000000Y-101750000D03*
X131500000Y-102750000D03*
X133605000Y-111110000D03*
X133605000Y-116890000D03*
D12*
X134105000Y-109680000D03*
D13*
X129925000Y-109680000D03*
D12*
X134105000Y-118320000D03*
D13*
X129925000Y-118320000D03*
D11*
X131500000Y-122750000D03*
X203675000Y-101000000D03*
X206215000Y-101000000D03*
X208755000Y-101000000D03*
X211295000Y-101000000D03*
X213835000Y-101000000D03*
X215680000Y-106000000D03*
M02*
