%TF.GenerationSoftware,KiCad,Pcbnew,8.0.8*%
%TF.CreationDate,2025-04-24T21:45:02+02:00*%
%TF.ProjectId,LD2420_Radar_ESP32,4c443234-3230-45f5-9261-6461725f4553,rev?*%
%TF.SameCoordinates,Original*%
%TF.FileFunction,Copper,L2,Bot*%
%TF.FilePolarity,Positive*%
%FSLAX46Y46*%
G04 Gerber Fmt 4.6, Leading zero omitted, Abs format (unit mm)*
G04 Created by KiCad (PCBNEW 8.0.8) date 2025-04-24 21:45:02*
%MOMM*%
%LPD*%
G01*
G04 APERTURE LIST*
G04 Aperture macros list*
%AMFreePoly0*
4,1,19,0.500000,-0.750000,0.000000,-0.750000,0.000000,-0.744911,-0.071157,-0.744911,-0.207708,-0.704816,-0.327430,-0.627875,-0.420627,-0.520320,-0.479746,-0.390866,-0.500000,-0.250000,-0.500000,0.250000,-0.479746,0.390866,-0.420627,0.520320,-0.327430,0.627875,-0.207708,0.704816,-0.071157,0.744911,0.000000,0.744911,0.000000,0.750000,0.500000,0.750000,0.500000,-0.750000,0.500000,-0.750000,
$1*%
%AMFreePoly1*
4,1,19,0.000000,0.744911,0.071157,0.744911,0.207708,0.704816,0.327430,0.627875,0.420627,0.520320,0.479746,0.390866,0.500000,0.250000,0.500000,-0.250000,0.479746,-0.390866,0.420627,-0.520320,0.327430,-0.627875,0.207708,-0.704816,0.071157,-0.744911,0.000000,-0.744911,0.000000,-0.750000,-0.500000,-0.750000,-0.500000,0.750000,0.000000,0.750000,0.000000,0.744911,0.000000,0.744911,
$1*%
G04 Aperture macros list end*
%TA.AperFunction,ComponentPad*%
%ADD10C,3.600000*%
%TD*%
%TA.AperFunction,ConnectorPad*%
%ADD11C,5.600000*%
%TD*%
%TA.AperFunction,HeatsinkPad*%
%ADD12O,2.100000X1.000000*%
%TD*%
%TA.AperFunction,HeatsinkPad*%
%ADD13O,1.800000X1.000000*%
%TD*%
%TA.AperFunction,ComponentPad*%
%ADD14R,1.700000X1.700000*%
%TD*%
%TA.AperFunction,ComponentPad*%
%ADD15O,1.700000X1.700000*%
%TD*%
%TA.AperFunction,SMDPad,CuDef*%
%ADD16R,7.340000X6.350000*%
%TD*%
%TA.AperFunction,SMDPad,CuDef*%
%ADD17FreePoly0,90.000000*%
%TD*%
%TA.AperFunction,SMDPad,CuDef*%
%ADD18FreePoly1,90.000000*%
%TD*%
%TA.AperFunction,ViaPad*%
%ADD19C,0.800000*%
%TD*%
%TA.AperFunction,ViaPad*%
%ADD20C,0.500000*%
%TD*%
%TA.AperFunction,ViaPad*%
%ADD21C,0.450000*%
%TD*%
%TA.AperFunction,ViaPad*%
%ADD22C,0.600000*%
%TD*%
%TA.AperFunction,ViaPad*%
%ADD23C,0.350000*%
%TD*%
%TA.AperFunction,ViaPad*%
%ADD24C,0.750000*%
%TD*%
%TA.AperFunction,Conductor*%
%ADD25C,0.250000*%
%TD*%
%TA.AperFunction,Conductor*%
%ADD26C,1.000000*%
%TD*%
%TA.AperFunction,Conductor*%
%ADD27C,0.200000*%
%TD*%
%ADD28C,0.350000*%
%ADD29C,0.300000*%
%ADD30C,0.200000*%
%ADD31O,1.700000X0.600000*%
%ADD32O,1.400000X0.600000*%
G04 APERTURE END LIST*
D10*
%TO.P,H2,1,1*%
%TO.N,GND*%
X222000000Y-101750000D03*
D11*
X222000000Y-101750000D03*
%TD*%
D10*
%TO.P,H1,1,1*%
%TO.N,GND*%
X131500000Y-102750000D03*
D11*
X131500000Y-102750000D03*
%TD*%
D12*
%TO.P,USB_C1,S1,SHIELD*%
%TO.N,GND*%
X134105000Y-109680000D03*
D13*
X129925000Y-109680000D03*
D12*
X134105000Y-118320000D03*
D13*
X129925000Y-118320000D03*
%TD*%
D10*
%TO.P,H3,1,1*%
%TO.N,GND*%
X131500000Y-122750000D03*
D11*
X131500000Y-122750000D03*
%TD*%
D14*
%TO.P,LD2420,1,Pin_1*%
%TO.N,+3.3V*%
X203675000Y-101000000D03*
D15*
%TO.P,LD2420,2,Pin_2*%
%TO.N,GND*%
X206215000Y-101000000D03*
%TO.P,LD2420,3,Pin_3*%
%TO.N,LD2420_TX*%
X208755000Y-101000000D03*
%TO.P,LD2420,4,Pin_4*%
%TO.N,LD2420_RX*%
X211295000Y-101000000D03*
%TO.P,LD2420,5,Pin_5*%
%TO.N,LD2420_DETECTION_PIN*%
X213835000Y-101000000D03*
%TD*%
D16*
%TO.P,BT1,1,+*%
%TO.N,Net-(BT1-+)*%
X219080000Y-114000000D03*
%TO.P,BT1,2,-*%
%TO.N,GND*%
X140420000Y-114000000D03*
%TD*%
D17*
%TO.P,JP1,1,A*%
%TO.N,VBATT*%
X221000000Y-121250000D03*
D18*
%TO.P,JP1,2,B*%
%TO.N,Net-(BT1-+)*%
X221000000Y-119950000D03*
%TD*%
D19*
%TO.N,GND*%
X168650000Y-104500000D03*
D20*
%TO.N,+3.3V*%
X177750000Y-104500000D03*
D21*
%TO.N,GND*%
X197250000Y-112250000D03*
X222250000Y-107250000D03*
D20*
X147275000Y-117135000D03*
D21*
X192250000Y-117250000D03*
X172250000Y-123250000D03*
X175250000Y-111250000D03*
X164250000Y-106250000D03*
X139250000Y-122250000D03*
X155250000Y-123250000D03*
X136250000Y-122250000D03*
X184250000Y-111250000D03*
X170250000Y-111250000D03*
X158250000Y-101250000D03*
X208250000Y-116250000D03*
X184250000Y-106250000D03*
X216250000Y-123250000D03*
X156250000Y-110250000D03*
X160250000Y-122250000D03*
X207250000Y-123250000D03*
X211250000Y-116250000D03*
D19*
X149075000Y-108750000D03*
D21*
X160250000Y-107250000D03*
X192250000Y-113250000D03*
X132250000Y-114250000D03*
X211250000Y-117250000D03*
X156250000Y-102250000D03*
X220250000Y-123250000D03*
X221250000Y-109250000D03*
X148250000Y-101250000D03*
X211250000Y-113250000D03*
X215250000Y-119250000D03*
D19*
X149750000Y-116500000D03*
D22*
X158120000Y-120675000D03*
D21*
X184250000Y-108250000D03*
X200250000Y-110250000D03*
X209250000Y-115250000D03*
X176250000Y-112250000D03*
X168250000Y-123250000D03*
X162250000Y-111250000D03*
X200250000Y-106250000D03*
X157250000Y-110250000D03*
X146787500Y-105500000D03*
X208250000Y-114250000D03*
X152250000Y-101250000D03*
X212250000Y-110250000D03*
X191250000Y-118250000D03*
X208250000Y-117250000D03*
D23*
X139500000Y-113500000D03*
D21*
X213250000Y-112250000D03*
X210250000Y-115250000D03*
X218250000Y-106250000D03*
X161250000Y-123250000D03*
X221250000Y-107250000D03*
X160250000Y-108250000D03*
X130250000Y-115250000D03*
X222250000Y-108250000D03*
X161250000Y-111250000D03*
X157250000Y-102250000D03*
X211250000Y-123250000D03*
X210250000Y-118250000D03*
X199250000Y-111250000D03*
D23*
X138750000Y-113500000D03*
D21*
X193250000Y-101250000D03*
X160250000Y-110250000D03*
X166250000Y-123250000D03*
X222250000Y-109250000D03*
X162250000Y-105250000D03*
X154250000Y-110250000D03*
X163250000Y-105250000D03*
X213250000Y-113250000D03*
X213250000Y-116250000D03*
X131250000Y-112250000D03*
X155250000Y-101250000D03*
X155250000Y-122250000D03*
X137250000Y-122250000D03*
X179250000Y-106250000D03*
X140250000Y-104250000D03*
X176250000Y-109250000D03*
X211250000Y-111250000D03*
X219250000Y-123250000D03*
X138250000Y-123250000D03*
X167250000Y-123250000D03*
X131250000Y-107250000D03*
X201250000Y-107250000D03*
X211250000Y-118250000D03*
X222250000Y-123250000D03*
X216250000Y-101250000D03*
X176250000Y-108250000D03*
X190250000Y-113250000D03*
X209250000Y-123250000D03*
X191250000Y-117250000D03*
X212250000Y-118250000D03*
X163250000Y-106250000D03*
X209250000Y-116250000D03*
X212250000Y-116250000D03*
X218250000Y-109250000D03*
X211250000Y-112250000D03*
X216250000Y-103250000D03*
X190250000Y-118250000D03*
X217250000Y-123250000D03*
X200250000Y-107250000D03*
X198250000Y-113250000D03*
X215250000Y-109250000D03*
X137250000Y-123250000D03*
X194250000Y-117250000D03*
X197250000Y-113250000D03*
X189250000Y-117250000D03*
X206250000Y-116250000D03*
X199250000Y-110250000D03*
X207250000Y-115250000D03*
X194250000Y-101250000D03*
X156250000Y-101250000D03*
X209250000Y-119250000D03*
X184250000Y-110250000D03*
X198250000Y-110250000D03*
X151250000Y-101250000D03*
X193250000Y-113250000D03*
X212250000Y-123250000D03*
X220250000Y-107250000D03*
X175250000Y-110250000D03*
X166250000Y-101250000D03*
X212250000Y-114250000D03*
X131250000Y-116250000D03*
X213250000Y-123250000D03*
X160250000Y-109250000D03*
X175250000Y-112250000D03*
X140250000Y-122250000D03*
X131250000Y-115250000D03*
X198250000Y-111250000D03*
X191250000Y-113250000D03*
X213250000Y-115250000D03*
X136250000Y-123250000D03*
X201250000Y-108250000D03*
X175250000Y-108250000D03*
X219250000Y-108250000D03*
X202250000Y-110250000D03*
X212250000Y-112250000D03*
X130250000Y-107250000D03*
X182250000Y-106250000D03*
X193250000Y-117250000D03*
X209250000Y-117250000D03*
X160250000Y-111250000D03*
X220250000Y-108250000D03*
X176250000Y-107250000D03*
X169250000Y-123250000D03*
X213250000Y-111250000D03*
X196250000Y-112250000D03*
X212250000Y-115250000D03*
X202250000Y-109250000D03*
X210250000Y-112250000D03*
X175250000Y-109250000D03*
X216250000Y-109250000D03*
X160250000Y-121250000D03*
X197250000Y-110250000D03*
X217250000Y-119250000D03*
X211250000Y-119250000D03*
X215250000Y-123250000D03*
X193250000Y-102250000D03*
X212250000Y-119250000D03*
X155250000Y-102250000D03*
X217250000Y-101250000D03*
X218250000Y-123250000D03*
X217250000Y-102250000D03*
D22*
X163880000Y-121325000D03*
D21*
X210250000Y-123250000D03*
X197250000Y-111250000D03*
X221250000Y-106250000D03*
X130250000Y-116250000D03*
D22*
X158120000Y-121325000D03*
D21*
X210250000Y-117250000D03*
X210250000Y-113250000D03*
X195250000Y-112250000D03*
X201250000Y-110250000D03*
X189250000Y-112250000D03*
X131250000Y-113250000D03*
X155250000Y-110250000D03*
X149250000Y-101250000D03*
X202250000Y-107250000D03*
X220250000Y-109250000D03*
X194250000Y-113250000D03*
X202250000Y-106250000D03*
X139250000Y-123250000D03*
X219250000Y-107250000D03*
X206250000Y-123250000D03*
X159250000Y-110250000D03*
X201250000Y-106250000D03*
X140250000Y-123250000D03*
X161250000Y-106250000D03*
X218250000Y-107250000D03*
X210250000Y-119250000D03*
X213250000Y-109250000D03*
X213250000Y-117250000D03*
X192250000Y-118250000D03*
X213250000Y-110250000D03*
X163250000Y-101250000D03*
X159250000Y-101250000D03*
X216250000Y-119250000D03*
X160250000Y-123250000D03*
X212250000Y-111250000D03*
X200250000Y-111250000D03*
X184250000Y-107250000D03*
X159250000Y-111250000D03*
X132250000Y-115250000D03*
X158250000Y-110250000D03*
X218250000Y-108250000D03*
X165250000Y-101250000D03*
X180250000Y-106250000D03*
X161250000Y-101250000D03*
X216250000Y-102250000D03*
X181250000Y-106250000D03*
X213250000Y-118250000D03*
X161250000Y-121250000D03*
X192250000Y-102250000D03*
X164250000Y-105250000D03*
D22*
X163880000Y-120675000D03*
D21*
X154250000Y-123250000D03*
X211250000Y-114250000D03*
X165250000Y-107250000D03*
X162250000Y-101250000D03*
X213250000Y-119250000D03*
X207250000Y-116250000D03*
X162250000Y-106250000D03*
X176250000Y-110250000D03*
X199250000Y-112250000D03*
X210250000Y-116250000D03*
X138250000Y-122250000D03*
X214250000Y-119250000D03*
X196250000Y-111250000D03*
X189250000Y-113250000D03*
X217250000Y-109250000D03*
X193250000Y-118250000D03*
X195250000Y-113250000D03*
X184250000Y-109250000D03*
X176250000Y-111250000D03*
X210250000Y-114250000D03*
X130250000Y-114250000D03*
X221250000Y-123250000D03*
X161250000Y-122250000D03*
X190250000Y-117250000D03*
X209250000Y-113250000D03*
X217250000Y-103250000D03*
X183250000Y-106250000D03*
X211250000Y-115250000D03*
X208250000Y-115250000D03*
X220250000Y-106250000D03*
X212250000Y-117250000D03*
X213250000Y-114250000D03*
X215250000Y-103250000D03*
X202250000Y-108250000D03*
X161250000Y-110250000D03*
X212250000Y-113250000D03*
X131250000Y-114250000D03*
X205250000Y-107250000D03*
X208250000Y-123250000D03*
X219250000Y-109250000D03*
X158250000Y-111250000D03*
X130250000Y-113250000D03*
X214250000Y-109250000D03*
X201250000Y-109250000D03*
X166250000Y-122250000D03*
X175250000Y-107250000D03*
X198250000Y-112250000D03*
X222250000Y-106250000D03*
X140250000Y-103250000D03*
X200250000Y-108250000D03*
X209250000Y-114250000D03*
X170250000Y-123250000D03*
X130250000Y-112250000D03*
X214250000Y-123250000D03*
X205250000Y-123250000D03*
X221250000Y-108250000D03*
X164250000Y-101250000D03*
X154250000Y-101250000D03*
X200250000Y-109250000D03*
X209250000Y-118250000D03*
X171250000Y-123250000D03*
X150250000Y-101250000D03*
X219250000Y-106250000D03*
X196250000Y-113250000D03*
X153250000Y-101250000D03*
X194250000Y-118250000D03*
D20*
X147275000Y-114595000D03*
D21*
X157250000Y-101250000D03*
X160250000Y-101250000D03*
D20*
%TO.N,VBATT*%
X156000000Y-115750000D03*
D24*
X166250000Y-117500000D03*
X138000000Y-105500000D03*
X152500000Y-120000000D03*
D20*
%TO.N,LD2420_DETECTION_PIN*%
X181000000Y-113250000D03*
%TO.N,LD2420_RX*%
X182250000Y-113250000D03*
%TO.N,LD2420_TX*%
X183750000Y-113250000D03*
%TO.N,Net-(U1-GPIO9{slash}TOUCH9{slash}ADC1_CH8{slash}FSPIHD{slash}SUBSPIHD)*%
X180500000Y-120250000D03*
X171000000Y-117750000D03*
D19*
%TO.N,USB_D+*%
X179121232Y-119371232D03*
X144461240Y-110650981D03*
%TO.N,USB_D-*%
X178378768Y-118628768D03*
X146250000Y-111250000D03*
D20*
%TO.N,CHRG_LED*%
X143250000Y-121500000D03*
X151500000Y-122250000D03*
%TD*%
D25*
%TO.N,+3.3V*%
X200175000Y-104500000D02*
X203675000Y-101000000D01*
X177750000Y-104500000D02*
X200175000Y-104500000D01*
D26*
%TO.N,VBATT*%
X156000000Y-118000000D02*
X156000000Y-115750000D01*
X152500000Y-120000000D02*
X138175000Y-120000000D01*
X152500000Y-120000000D02*
X154000000Y-120000000D01*
X136050000Y-107450000D02*
X138000000Y-105500000D01*
D25*
X155875000Y-118125000D02*
X156000000Y-118000000D01*
D26*
X136050000Y-117875000D02*
X136050000Y-107450000D01*
X156500000Y-117500000D02*
X166250000Y-117500000D01*
X170009496Y-121259496D02*
X166250000Y-117500000D01*
X154000000Y-120000000D02*
X154500000Y-119500000D01*
X138175000Y-120000000D02*
X136050000Y-117875000D01*
X154500000Y-119500000D02*
X155875000Y-118125000D01*
X221040504Y-121259496D02*
X170009496Y-121259496D01*
X155875000Y-118125000D02*
X156500000Y-117500000D01*
%TO.N,Net-(BT1-+)*%
X221000000Y-119950000D02*
X221000000Y-118500000D01*
X219080000Y-116580000D02*
X219080000Y-114000000D01*
X221000000Y-118500000D02*
X219080000Y-116580000D01*
D25*
%TO.N,LD2420_DETECTION_PIN*%
X213835000Y-104915000D02*
X213835000Y-101000000D01*
X183500000Y-115750000D02*
X203000000Y-115750000D01*
X181000000Y-113250000D02*
X183500000Y-115750000D01*
X203000000Y-115750000D02*
X213835000Y-104915000D01*
%TO.N,LD2420_RX*%
X202250000Y-115250000D02*
X211295000Y-106205000D01*
X182250000Y-113250000D02*
X184250000Y-115250000D01*
X184250000Y-115250000D02*
X202250000Y-115250000D01*
X211295000Y-106205000D02*
X211295000Y-101000000D01*
%TO.N,LD2420_TX*%
X185250000Y-114750000D02*
X201750000Y-114750000D01*
X201750000Y-114750000D02*
X208755000Y-107745000D01*
X208755000Y-107745000D02*
X208755000Y-101000000D01*
X183750000Y-113250000D02*
X185250000Y-114750000D01*
%TO.N,Net-(U1-GPIO9{slash}TOUCH9{slash}ADC1_CH8{slash}FSPIHD{slash}SUBSPIHD)*%
X173500000Y-120250000D02*
X171000000Y-117750000D01*
X180500000Y-120250000D02*
X173500000Y-120250000D01*
D27*
%TO.N,USB_D+*%
X144582782Y-110650981D02*
X144461240Y-110650981D01*
X179121232Y-119371232D02*
X178230277Y-119371232D01*
X170288301Y-114750000D02*
X169099240Y-114750000D01*
X178230277Y-119371232D02*
X173609045Y-114750000D01*
X169099240Y-114750000D02*
X148681801Y-114750000D01*
X173609045Y-114750000D02*
X170288301Y-114750000D01*
X148681801Y-114750000D02*
X144582782Y-110650981D01*
%TO.N,USB_D-*%
X146250000Y-111681801D02*
X148818199Y-114250000D01*
X174000000Y-114250000D02*
X178378768Y-118628768D01*
X146250000Y-111250000D02*
X146250000Y-111681801D01*
X148818199Y-114250000D02*
X174000000Y-114250000D01*
D25*
%TO.N,CHRG_LED*%
X151500000Y-122250000D02*
X144000000Y-122250000D01*
X144000000Y-122250000D02*
X143250000Y-121500000D01*
%TD*%
%TA.AperFunction,Conductor*%
%TO.N,GND*%
G36*
X167010418Y-98269685D02*
G01*
X167037083Y-98292788D01*
X168529328Y-100014609D01*
X170249999Y-101999999D01*
X170250000Y-102000000D01*
X172048638Y-102000000D01*
X172115677Y-102019685D01*
X172136319Y-102036319D01*
X172150000Y-102050000D01*
X187550000Y-102050000D01*
X187563681Y-102036319D01*
X187625004Y-102002834D01*
X187651362Y-102000000D01*
X189500000Y-102000000D01*
X192712916Y-98292788D01*
X192771697Y-98255020D01*
X192806621Y-98250000D01*
X221409549Y-98250000D01*
X221476588Y-98269685D01*
X221522343Y-98322489D01*
X221532287Y-98391647D01*
X221503262Y-98455203D01*
X221444484Y-98492977D01*
X221436206Y-98495101D01*
X221115855Y-98565616D01*
X220776744Y-98679876D01*
X220776739Y-98679877D01*
X220451990Y-98830123D01*
X220145370Y-99014609D01*
X220145367Y-99014611D01*
X219860491Y-99231166D01*
X219847256Y-99243703D01*
X219847255Y-99243703D01*
X221059301Y-100455748D01*
X220957670Y-100529588D01*
X220779588Y-100707670D01*
X220705748Y-100809300D01*
X219496442Y-99599994D01*
X219496441Y-99599995D01*
X219369040Y-99749983D01*
X219369033Y-99749993D01*
X219168218Y-100046172D01*
X219000606Y-100362322D01*
X219000597Y-100362340D01*
X218868149Y-100694760D01*
X218868147Y-100694767D01*
X218772421Y-101039542D01*
X218772415Y-101039568D01*
X218714527Y-101392668D01*
X218714526Y-101392685D01*
X218695153Y-101749997D01*
X218695153Y-101750002D01*
X218714526Y-102107314D01*
X218714527Y-102107331D01*
X218772415Y-102460431D01*
X218772421Y-102460457D01*
X218868147Y-102805232D01*
X218868149Y-102805239D01*
X219000597Y-103137659D01*
X219000606Y-103137677D01*
X219168218Y-103453827D01*
X219369033Y-103750007D01*
X219496441Y-103900003D01*
X219496442Y-103900004D01*
X220705748Y-102690698D01*
X220779588Y-102792330D01*
X220957670Y-102970412D01*
X221059300Y-103044251D01*
X219847255Y-104256295D01*
X219847256Y-104256296D01*
X219860485Y-104268828D01*
X219860486Y-104268829D01*
X220145367Y-104485388D01*
X220145370Y-104485390D01*
X220451990Y-104669876D01*
X220776739Y-104820122D01*
X220776744Y-104820123D01*
X221115855Y-104934383D01*
X221465339Y-105011311D01*
X221821075Y-105049999D01*
X221821085Y-105050000D01*
X222178915Y-105050000D01*
X222178924Y-105049999D01*
X222534660Y-105011311D01*
X222884144Y-104934383D01*
X223223255Y-104820123D01*
X223223260Y-104820122D01*
X223548009Y-104669876D01*
X223854629Y-104485390D01*
X223854632Y-104485388D01*
X224139504Y-104268836D01*
X224152742Y-104256294D01*
X222940698Y-103044251D01*
X223042330Y-102970412D01*
X223220412Y-102792330D01*
X223294251Y-102690698D01*
X224503556Y-103900003D01*
X224630964Y-103750008D01*
X224630975Y-103749994D01*
X224831781Y-103453827D01*
X224999393Y-103137677D01*
X224999397Y-103137668D01*
X225010806Y-103109036D01*
X225053906Y-103054043D01*
X225119895Y-103031082D01*
X225187823Y-103047443D01*
X225236122Y-103097930D01*
X225250000Y-103154932D01*
X225250000Y-126126000D01*
X225230315Y-126193039D01*
X225177511Y-126238794D01*
X225126000Y-126250000D01*
X132090451Y-126250000D01*
X132023412Y-126230315D01*
X131977657Y-126177511D01*
X131967713Y-126108353D01*
X131996738Y-126044797D01*
X132055516Y-126007023D01*
X132063794Y-126004899D01*
X132384144Y-125934383D01*
X132723255Y-125820123D01*
X132723260Y-125820122D01*
X133048009Y-125669876D01*
X133354629Y-125485390D01*
X133354632Y-125485388D01*
X133639504Y-125268836D01*
X133652742Y-125256294D01*
X132440698Y-124044251D01*
X132542330Y-123970412D01*
X132720412Y-123792330D01*
X132794251Y-123690698D01*
X134003556Y-124900003D01*
X134130964Y-124750008D01*
X134130975Y-124749994D01*
X134331781Y-124453827D01*
X134499393Y-124137677D01*
X134499402Y-124137659D01*
X134631850Y-123805239D01*
X134631852Y-123805232D01*
X134727578Y-123460457D01*
X134727584Y-123460431D01*
X134785472Y-123107331D01*
X134785473Y-123107314D01*
X134804847Y-122750002D01*
X134804847Y-122749997D01*
X134785473Y-122392685D01*
X134785472Y-122392668D01*
X134727584Y-122039568D01*
X134727578Y-122039542D01*
X134631852Y-121694767D01*
X134631850Y-121694760D01*
X134499402Y-121362340D01*
X134499393Y-121362322D01*
X134331781Y-121046172D01*
X134130966Y-120749992D01*
X134003557Y-120599995D01*
X134003556Y-120599994D01*
X132794250Y-121809299D01*
X132720412Y-121707670D01*
X132542330Y-121529588D01*
X132440697Y-121455747D01*
X133652743Y-120243703D01*
X133652742Y-120243702D01*
X133639514Y-120231171D01*
X133639513Y-120231170D01*
X133354632Y-120014611D01*
X133354629Y-120014609D01*
X133048009Y-119830123D01*
X132723260Y-119679877D01*
X132723255Y-119679876D01*
X132384144Y-119565616D01*
X132034660Y-119488688D01*
X131678924Y-119450000D01*
X131321075Y-119450000D01*
X130965339Y-119488688D01*
X130615855Y-119565616D01*
X130276744Y-119679876D01*
X130276739Y-119679877D01*
X129951990Y-119830123D01*
X129645370Y-120014609D01*
X129645367Y-120014611D01*
X129360491Y-120231166D01*
X129347256Y-120243703D01*
X129347255Y-120243703D01*
X130559301Y-121455748D01*
X130457670Y-121529588D01*
X130279588Y-121707670D01*
X130205748Y-121809301D01*
X128996442Y-120599994D01*
X128996441Y-120599995D01*
X128869040Y-120749983D01*
X128869033Y-120749993D01*
X128668218Y-121046172D01*
X128500606Y-121362322D01*
X128500597Y-121362340D01*
X128368149Y-121694760D01*
X128368147Y-121694767D01*
X128272421Y-122039542D01*
X128272415Y-122039568D01*
X128214527Y-122392668D01*
X128214526Y-122392685D01*
X128195153Y-122749997D01*
X128195153Y-122750002D01*
X128214526Y-123107314D01*
X128214527Y-123107331D01*
X128272415Y-123460431D01*
X128272421Y-123460457D01*
X128368147Y-123805232D01*
X128368149Y-123805239D01*
X128500597Y-124137659D01*
X128500606Y-124137677D01*
X128668218Y-124453827D01*
X128869033Y-124750007D01*
X128996441Y-124900003D01*
X128996442Y-124900004D01*
X130205747Y-123690698D01*
X130279588Y-123792330D01*
X130457670Y-123970412D01*
X130559300Y-124044251D01*
X129347255Y-125256295D01*
X129347256Y-125256296D01*
X129360485Y-125268828D01*
X129360486Y-125268829D01*
X129645367Y-125485388D01*
X129645370Y-125485390D01*
X129951990Y-125669876D01*
X130276739Y-125820122D01*
X130276744Y-125820123D01*
X130615855Y-125934383D01*
X130936206Y-126004899D01*
X130997446Y-126038535D01*
X131030780Y-126099940D01*
X131025624Y-126169620D01*
X130983615Y-126225450D01*
X130918090Y-126249705D01*
X130909549Y-126250000D01*
X127374000Y-126250000D01*
X127306961Y-126230315D01*
X127261206Y-126177511D01*
X127250000Y-126126000D01*
X127250000Y-118070000D01*
X128555138Y-118070000D01*
X129358012Y-118070000D01*
X129340795Y-118079940D01*
X129284940Y-118135795D01*
X129245444Y-118204204D01*
X129225000Y-118280504D01*
X129225000Y-118359496D01*
X129245444Y-118435796D01*
X129284940Y-118504205D01*
X129340795Y-118560060D01*
X129358012Y-118570000D01*
X128555138Y-118570000D01*
X128563430Y-118611690D01*
X128563430Y-118611692D01*
X128638807Y-118793671D01*
X128638814Y-118793684D01*
X128748248Y-118957462D01*
X128748251Y-118957466D01*
X128887533Y-119096748D01*
X128887537Y-119096751D01*
X129051315Y-119206185D01*
X129051328Y-119206192D01*
X129233306Y-119281569D01*
X129233318Y-119281572D01*
X129426504Y-119319999D01*
X129426508Y-119320000D01*
X129675000Y-119320000D01*
X129675000Y-118620000D01*
X130175000Y-118620000D01*
X130175000Y-119320000D01*
X130423492Y-119320000D01*
X130423495Y-119319999D01*
X130616681Y-119281572D01*
X130616693Y-119281569D01*
X130798671Y-119206192D01*
X130798684Y-119206185D01*
X130962462Y-119096751D01*
X130962466Y-119096748D01*
X131101748Y-118957466D01*
X131101751Y-118957462D01*
X131211185Y-118793684D01*
X131211192Y-118793671D01*
X131286569Y-118611692D01*
X131286569Y-118611690D01*
X131294862Y-118570000D01*
X130491988Y-118570000D01*
X130509205Y-118560060D01*
X130565060Y-118504205D01*
X130604556Y-118435796D01*
X130625000Y-118359496D01*
X130625000Y-118280504D01*
X130604556Y-118204204D01*
X130565060Y-118135795D01*
X130509205Y-118079940D01*
X130491988Y-118070000D01*
X131294862Y-118070000D01*
X131286569Y-118028309D01*
X131286569Y-118028307D01*
X131211192Y-117846328D01*
X131211185Y-117846315D01*
X131101751Y-117682537D01*
X131101748Y-117682533D01*
X130962466Y-117543251D01*
X130962462Y-117543248D01*
X130798684Y-117433814D01*
X130798671Y-117433807D01*
X130616693Y-117358430D01*
X130616681Y-117358427D01*
X130423495Y-117320000D01*
X130175000Y-117320000D01*
X130175000Y-118020000D01*
X129675000Y-118020000D01*
X129675000Y-117320000D01*
X129426504Y-117320000D01*
X129233318Y-117358427D01*
X129233306Y-117358430D01*
X129051328Y-117433807D01*
X129051315Y-117433814D01*
X128887537Y-117543248D01*
X128887533Y-117543251D01*
X128748251Y-117682533D01*
X128748248Y-117682537D01*
X128638814Y-117846315D01*
X128638807Y-117846328D01*
X128563430Y-118028307D01*
X128563430Y-118028309D01*
X128555138Y-118070000D01*
X127250000Y-118070000D01*
X127250000Y-109430000D01*
X128555138Y-109430000D01*
X129358012Y-109430000D01*
X129340795Y-109439940D01*
X129284940Y-109495795D01*
X129245444Y-109564204D01*
X129225000Y-109640504D01*
X129225000Y-109719496D01*
X129245444Y-109795796D01*
X129284940Y-109864205D01*
X129340795Y-109920060D01*
X129358012Y-109930000D01*
X128555138Y-109930000D01*
X128563430Y-109971690D01*
X128563430Y-109971692D01*
X128638807Y-110153671D01*
X128638814Y-110153684D01*
X128748248Y-110317462D01*
X128748251Y-110317466D01*
X128887533Y-110456748D01*
X128887537Y-110456751D01*
X129051315Y-110566185D01*
X129051328Y-110566192D01*
X129233306Y-110641569D01*
X129233318Y-110641572D01*
X129426504Y-110679999D01*
X129426508Y-110680000D01*
X129675000Y-110680000D01*
X129675000Y-109980000D01*
X130175000Y-109980000D01*
X130175000Y-110680000D01*
X130423492Y-110680000D01*
X130423495Y-110679999D01*
X130616681Y-110641572D01*
X130616693Y-110641569D01*
X130798671Y-110566192D01*
X130798684Y-110566185D01*
X130962462Y-110456751D01*
X130962466Y-110456748D01*
X131101748Y-110317466D01*
X131101751Y-110317462D01*
X131211185Y-110153684D01*
X131211192Y-110153671D01*
X131286569Y-109971692D01*
X131286569Y-109971690D01*
X131294862Y-109930000D01*
X130491988Y-109930000D01*
X130509205Y-109920060D01*
X130565060Y-109864205D01*
X130604556Y-109795796D01*
X130625000Y-109719496D01*
X130625000Y-109640504D01*
X130604556Y-109564204D01*
X130565060Y-109495795D01*
X130509205Y-109439940D01*
X130491988Y-109430000D01*
X131294862Y-109430000D01*
X132585138Y-109430000D01*
X133388012Y-109430000D01*
X133370795Y-109439940D01*
X133314940Y-109495795D01*
X133275444Y-109564204D01*
X133255000Y-109640504D01*
X133255000Y-109719496D01*
X133275444Y-109795796D01*
X133314940Y-109864205D01*
X133370795Y-109920060D01*
X133388012Y-109930000D01*
X132585138Y-109930000D01*
X132593430Y-109971690D01*
X132593430Y-109971692D01*
X132668807Y-110153671D01*
X132668814Y-110153684D01*
X132778248Y-110317462D01*
X132778251Y-110317466D01*
X132917533Y-110456748D01*
X132917537Y-110456751D01*
X133081315Y-110566185D01*
X133081328Y-110566192D01*
X133263306Y-110641569D01*
X133263318Y-110641572D01*
X133456504Y-110679999D01*
X133456508Y-110680000D01*
X133855000Y-110680000D01*
X133855000Y-109980000D01*
X134355000Y-109980000D01*
X134355000Y-110680000D01*
X134753492Y-110680000D01*
X134753495Y-110679999D01*
X134901309Y-110650598D01*
X134970901Y-110656825D01*
X135026078Y-110699688D01*
X135049322Y-110765578D01*
X135049500Y-110772215D01*
X135049500Y-117227785D01*
X135029815Y-117294824D01*
X134977011Y-117340579D01*
X134907853Y-117350523D01*
X134901309Y-117349402D01*
X134753495Y-117320000D01*
X134355000Y-117320000D01*
X134355000Y-118020000D01*
X133855000Y-118020000D01*
X133855000Y-117320000D01*
X133456504Y-117320000D01*
X133263318Y-117358427D01*
X133263306Y-117358430D01*
X133081328Y-117433807D01*
X133081315Y-117433814D01*
X132917537Y-117543248D01*
X132917533Y-117543251D01*
X132778251Y-117682533D01*
X132778248Y-117682537D01*
X132668814Y-117846315D01*
X132668807Y-117846328D01*
X132593430Y-118028307D01*
X132593430Y-118028309D01*
X132585138Y-118070000D01*
X133388012Y-118070000D01*
X133370795Y-118079940D01*
X133314940Y-118135795D01*
X133275444Y-118204204D01*
X133255000Y-118280504D01*
X133255000Y-118359496D01*
X133275444Y-118435796D01*
X133314940Y-118504205D01*
X133370795Y-118560060D01*
X133388012Y-118570000D01*
X132585138Y-118570000D01*
X132593430Y-118611690D01*
X132593430Y-118611692D01*
X132668807Y-118793671D01*
X132668814Y-118793684D01*
X132778248Y-118957462D01*
X132778251Y-118957466D01*
X132917533Y-119096748D01*
X132917537Y-119096751D01*
X133081315Y-119206185D01*
X133081328Y-119206192D01*
X133263306Y-119281569D01*
X133263318Y-119281572D01*
X133456504Y-119319999D01*
X133456508Y-119320000D01*
X133855000Y-119320000D01*
X133855000Y-118620000D01*
X134355000Y-118620000D01*
X134355000Y-119320000D01*
X134753492Y-119320000D01*
X134753495Y-119319999D01*
X134946681Y-119281572D01*
X134946693Y-119281569D01*
X135128671Y-119206192D01*
X135128684Y-119206185D01*
X135292462Y-119096751D01*
X135292466Y-119096748D01*
X135431749Y-118957465D01*
X135462279Y-118911774D01*
X135515891Y-118866968D01*
X135585216Y-118858261D01*
X135648244Y-118888415D01*
X135653063Y-118892983D01*
X137394735Y-120634655D01*
X137394764Y-120634686D01*
X137537217Y-120777139D01*
X137701080Y-120886628D01*
X137701086Y-120886632D01*
X137817916Y-120935024D01*
X137883164Y-120962051D01*
X137979812Y-120981275D01*
X138028135Y-120990887D01*
X138076458Y-121000500D01*
X138076459Y-121000500D01*
X138076460Y-121000500D01*
X138273540Y-121000500D01*
X142454938Y-121000500D01*
X142521977Y-121020185D01*
X142567732Y-121072989D01*
X142577676Y-121142147D01*
X142570626Y-121165312D01*
X142571844Y-121165738D01*
X142513685Y-121331943D01*
X142494751Y-121499997D01*
X142494751Y-121500002D01*
X142513685Y-121668056D01*
X142569545Y-121827694D01*
X142569547Y-121827697D01*
X142659518Y-121970884D01*
X142659523Y-121970890D01*
X142779109Y-122090476D01*
X142779115Y-122090481D01*
X142922302Y-122180452D01*
X142922307Y-122180455D01*
X142922310Y-122180456D01*
X143081941Y-122236313D01*
X143081944Y-122236313D01*
X143085656Y-122237612D01*
X143132383Y-122266973D01*
X143511016Y-122645606D01*
X143511045Y-122645637D01*
X143601263Y-122735855D01*
X143601267Y-122735858D01*
X143703707Y-122804307D01*
X143703713Y-122804310D01*
X143703714Y-122804311D01*
X143817548Y-122851463D01*
X143847215Y-122857363D01*
X143873980Y-122862688D01*
X143874000Y-122862691D01*
X143874022Y-122862696D01*
X143938391Y-122875499D01*
X143938392Y-122875500D01*
X143938393Y-122875500D01*
X143938394Y-122875500D01*
X151049124Y-122875500D01*
X151115095Y-122894505D01*
X151172310Y-122930456D01*
X151293621Y-122972904D01*
X151331943Y-122986314D01*
X151499997Y-123005249D01*
X151500000Y-123005249D01*
X151500003Y-123005249D01*
X151668056Y-122986314D01*
X151668059Y-122986313D01*
X151827690Y-122930456D01*
X151827692Y-122930454D01*
X151827694Y-122930454D01*
X151827697Y-122930452D01*
X151970884Y-122840481D01*
X151970885Y-122840480D01*
X151970890Y-122840477D01*
X152090477Y-122720890D01*
X152090481Y-122720884D01*
X152180452Y-122577697D01*
X152180454Y-122577694D01*
X152180454Y-122577692D01*
X152180456Y-122577690D01*
X152236313Y-122418059D01*
X152236313Y-122418058D01*
X152236314Y-122418056D01*
X152255249Y-122250002D01*
X152255249Y-122249997D01*
X152236314Y-122081943D01*
X152180454Y-121922305D01*
X152180452Y-121922302D01*
X152090481Y-121779115D01*
X152090476Y-121779109D01*
X151970890Y-121659523D01*
X151970884Y-121659518D01*
X151827697Y-121569547D01*
X151827694Y-121569545D01*
X151668056Y-121513685D01*
X151500003Y-121494751D01*
X151499997Y-121494751D01*
X151331943Y-121513685D01*
X151172307Y-121569545D01*
X151115096Y-121605494D01*
X151049124Y-121624500D01*
X144310452Y-121624500D01*
X144243413Y-121604815D01*
X144222771Y-121588181D01*
X144016973Y-121382383D01*
X143987612Y-121335656D01*
X143986313Y-121331943D01*
X143986313Y-121331941D01*
X143930456Y-121172310D01*
X143930455Y-121172309D01*
X143928156Y-121165737D01*
X143931086Y-121164711D01*
X143922002Y-121109259D01*
X143949777Y-121045148D01*
X144007804Y-121006230D01*
X144045062Y-121000500D01*
X154098542Y-121000500D01*
X154117870Y-120996655D01*
X154195188Y-120981275D01*
X154291836Y-120962051D01*
X154357084Y-120935024D01*
X154473914Y-120886632D01*
X154637782Y-120777139D01*
X154777139Y-120637782D01*
X154777140Y-120637779D01*
X154784206Y-120630714D01*
X154784208Y-120630710D01*
X155277139Y-120137781D01*
X155335698Y-120079222D01*
X155335710Y-120079208D01*
X156652140Y-118762781D01*
X156777139Y-118637782D01*
X156777140Y-118637781D01*
X156777140Y-118637780D01*
X156878103Y-118536818D01*
X156939427Y-118503334D01*
X156965784Y-118500500D01*
X165784218Y-118500500D01*
X165851257Y-118520185D01*
X165871899Y-118536819D01*
X169229231Y-121894151D01*
X169229260Y-121894182D01*
X169371710Y-122036632D01*
X169371714Y-122036635D01*
X169535578Y-122146126D01*
X169535580Y-122146126D01*
X169535582Y-122146128D01*
X169652361Y-122194499D01*
X169717660Y-122221547D01*
X169785469Y-122235035D01*
X169816840Y-122241275D01*
X169910952Y-122259996D01*
X169910955Y-122259996D01*
X221139045Y-122259996D01*
X221149668Y-122257882D01*
X221173860Y-122255500D01*
X221265573Y-122255500D01*
X221265601Y-122255497D01*
X221321940Y-122255497D01*
X221321941Y-122255497D01*
X221450308Y-122237040D01*
X221455479Y-122236297D01*
X221455481Y-122236297D01*
X221461612Y-122235415D01*
X221464256Y-122235035D01*
X221464257Y-122235035D01*
X221602309Y-122194498D01*
X221733094Y-122134770D01*
X221854130Y-122056986D01*
X221962791Y-121962832D01*
X221962794Y-121962829D01*
X222057015Y-121854091D01*
X222134747Y-121733137D01*
X222194517Y-121602259D01*
X222235024Y-121464304D01*
X222255500Y-121321889D01*
X222255500Y-120750000D01*
X222250355Y-120678060D01*
X222239396Y-120640740D01*
X222235636Y-120588158D01*
X222255500Y-120450000D01*
X222255500Y-119878111D01*
X222235024Y-119735696D01*
X222194517Y-119597741D01*
X222134747Y-119466863D01*
X222073288Y-119371231D01*
X222060623Y-119351523D01*
X222059802Y-119350081D01*
X222057014Y-119345906D01*
X222030786Y-119315637D01*
X222001762Y-119252081D01*
X222000500Y-119234435D01*
X222000500Y-118401456D01*
X222000499Y-118401454D01*
X221976440Y-118280504D01*
X221962051Y-118208165D01*
X221953121Y-118186607D01*
X221932897Y-118137781D01*
X221886632Y-118026086D01*
X221781263Y-117868390D01*
X221760385Y-117801712D01*
X221778870Y-117734332D01*
X221830849Y-117687642D01*
X221884365Y-117675499D01*
X222797871Y-117675499D01*
X222797872Y-117675499D01*
X222857483Y-117669091D01*
X222992331Y-117618796D01*
X223107546Y-117532546D01*
X223193796Y-117417331D01*
X223244091Y-117282483D01*
X223250500Y-117222873D01*
X223250499Y-110777128D01*
X223244091Y-110717517D01*
X223237441Y-110699688D01*
X223193797Y-110582671D01*
X223193793Y-110582664D01*
X223107547Y-110467455D01*
X223107544Y-110467452D01*
X222992335Y-110381206D01*
X222992328Y-110381202D01*
X222857482Y-110330908D01*
X222857483Y-110330908D01*
X222797883Y-110324501D01*
X222797881Y-110324500D01*
X222797873Y-110324500D01*
X222797864Y-110324500D01*
X215362129Y-110324500D01*
X215362123Y-110324501D01*
X215302516Y-110330908D01*
X215167671Y-110381202D01*
X215167664Y-110381206D01*
X215052455Y-110467452D01*
X215052452Y-110467455D01*
X214966206Y-110582664D01*
X214966202Y-110582671D01*
X214915908Y-110717517D01*
X214910028Y-110772215D01*
X214909501Y-110777123D01*
X214909500Y-110777135D01*
X214909500Y-117222870D01*
X214909501Y-117222876D01*
X214915908Y-117282483D01*
X214966202Y-117417328D01*
X214966206Y-117417335D01*
X215052452Y-117532544D01*
X215052455Y-117532547D01*
X215167664Y-117618793D01*
X215167671Y-117618797D01*
X215302517Y-117669091D01*
X215302516Y-117669091D01*
X215309444Y-117669835D01*
X215362127Y-117675500D01*
X218709217Y-117675499D01*
X218776256Y-117695184D01*
X218796898Y-117711818D01*
X219963181Y-118878101D01*
X219996666Y-118939424D01*
X219999500Y-118965782D01*
X219999500Y-119234436D01*
X219979815Y-119301475D01*
X219969215Y-119315637D01*
X219942987Y-119345906D01*
X219942982Y-119345912D01*
X219865255Y-119466857D01*
X219865252Y-119466863D01*
X219805483Y-119597741D01*
X219764977Y-119735691D01*
X219764974Y-119735703D01*
X219744500Y-119878110D01*
X219744500Y-120134996D01*
X219724815Y-120202035D01*
X219672011Y-120247790D01*
X219620500Y-120258996D01*
X181367076Y-120258996D01*
X181300037Y-120239311D01*
X181254282Y-120186507D01*
X181243856Y-120148880D01*
X181236314Y-120081943D01*
X181180454Y-119922305D01*
X181180452Y-119922302D01*
X181090481Y-119779115D01*
X181090476Y-119779109D01*
X180970890Y-119659523D01*
X180970884Y-119659518D01*
X180827697Y-119569547D01*
X180827694Y-119569545D01*
X180668056Y-119513685D01*
X180500003Y-119494751D01*
X180499997Y-119494751D01*
X180331942Y-119513686D01*
X180184225Y-119565374D01*
X180114446Y-119568935D01*
X180053819Y-119534206D01*
X180021592Y-119472213D01*
X180019950Y-119435376D01*
X180026692Y-119371232D01*
X180006906Y-119182976D01*
X179948411Y-119002948D01*
X179853765Y-118839016D01*
X179727103Y-118698344D01*
X179727102Y-118698343D01*
X179573966Y-118587083D01*
X179573961Y-118587080D01*
X179401039Y-118510089D01*
X179401034Y-118510087D01*
X179348618Y-118498946D01*
X179287136Y-118465753D01*
X179256469Y-118415975D01*
X179205947Y-118260484D01*
X179111301Y-118096552D01*
X178984639Y-117955880D01*
X178932579Y-117918056D01*
X178831502Y-117844619D01*
X178831497Y-117844616D01*
X178658575Y-117767625D01*
X178658570Y-117767623D01*
X178501943Y-117734332D01*
X178473414Y-117728268D01*
X178473413Y-117728268D01*
X178378865Y-117728268D01*
X178311826Y-117708583D01*
X178291184Y-117691949D01*
X174487590Y-113888355D01*
X174487588Y-113888352D01*
X174368717Y-113769481D01*
X174368716Y-113769480D01*
X174281904Y-113719360D01*
X174281904Y-113719359D01*
X174281900Y-113719358D01*
X174231785Y-113690423D01*
X174079057Y-113649499D01*
X173920943Y-113649499D01*
X173913347Y-113649499D01*
X173913331Y-113649500D01*
X149118296Y-113649500D01*
X149051257Y-113629815D01*
X149030615Y-113613181D01*
X147120742Y-111703308D01*
X147087257Y-111641985D01*
X147090491Y-111577311D01*
X147135674Y-111438256D01*
X147155460Y-111250000D01*
X147135674Y-111061744D01*
X147077179Y-110881716D01*
X146982533Y-110717784D01*
X146855871Y-110577112D01*
X146840841Y-110566192D01*
X146702734Y-110465851D01*
X146702729Y-110465848D01*
X146529807Y-110388857D01*
X146529802Y-110388855D01*
X146384001Y-110357865D01*
X146344646Y-110349500D01*
X146155354Y-110349500D01*
X146122897Y-110356398D01*
X145970197Y-110388855D01*
X145970192Y-110388857D01*
X145797270Y-110465848D01*
X145797265Y-110465851D01*
X145644129Y-110577111D01*
X145644128Y-110577112D01*
X145596065Y-110630491D01*
X145536578Y-110667139D01*
X145466721Y-110665808D01*
X145416235Y-110635199D01*
X145390078Y-110609042D01*
X145356593Y-110547719D01*
X145354438Y-110534320D01*
X145347242Y-110465851D01*
X145346914Y-110462725D01*
X145288419Y-110282697D01*
X145193773Y-110118765D01*
X145067111Y-109978093D01*
X145041597Y-109959556D01*
X144913974Y-109866832D01*
X144913969Y-109866829D01*
X144741047Y-109789838D01*
X144741042Y-109789836D01*
X144595241Y-109758846D01*
X144555886Y-109750481D01*
X144366594Y-109750481D01*
X144334137Y-109757379D01*
X144181437Y-109789836D01*
X144181432Y-109789838D01*
X144008510Y-109866829D01*
X144008505Y-109866832D01*
X143855369Y-109978092D01*
X143728706Y-110118766D01*
X143645433Y-110263000D01*
X143594866Y-110311215D01*
X143538046Y-110325000D01*
X140670000Y-110325000D01*
X140670000Y-113750000D01*
X144590000Y-113750000D01*
X144590000Y-111806796D01*
X144609685Y-111739757D01*
X144662489Y-111694002D01*
X144731647Y-111684058D01*
X144795203Y-111713083D01*
X144801681Y-111719115D01*
X148196940Y-115114374D01*
X148196950Y-115114385D01*
X148201280Y-115118715D01*
X148201281Y-115118716D01*
X148313085Y-115230520D01*
X148397246Y-115279110D01*
X148450016Y-115309577D01*
X148602743Y-115350500D01*
X148602744Y-115350500D01*
X154908270Y-115350500D01*
X154975309Y-115370185D01*
X155021064Y-115422989D01*
X155031008Y-115492147D01*
X155029887Y-115498691D01*
X154999500Y-115651454D01*
X154999500Y-117534217D01*
X154979815Y-117601256D01*
X154963181Y-117621898D01*
X153862219Y-118722861D01*
X153621899Y-118963181D01*
X153560576Y-118996666D01*
X153534218Y-118999500D01*
X138640782Y-118999500D01*
X138573743Y-118979815D01*
X138553101Y-118963181D01*
X137476601Y-117886681D01*
X137443116Y-117825358D01*
X137448100Y-117755666D01*
X137489972Y-117699733D01*
X137555436Y-117675316D01*
X137564282Y-117675000D01*
X140170000Y-117675000D01*
X140670000Y-117675000D01*
X144137828Y-117675000D01*
X144137844Y-117674999D01*
X144197372Y-117668598D01*
X144197379Y-117668596D01*
X144332086Y-117618354D01*
X144332093Y-117618350D01*
X144447187Y-117532190D01*
X144447190Y-117532187D01*
X144533350Y-117417093D01*
X144533354Y-117417086D01*
X144583596Y-117282379D01*
X144583598Y-117282372D01*
X144589999Y-117222844D01*
X144590000Y-117222827D01*
X144590000Y-114250000D01*
X140670000Y-114250000D01*
X140670000Y-117675000D01*
X140170000Y-117675000D01*
X140170000Y-110325000D01*
X137174500Y-110325000D01*
X137107461Y-110305315D01*
X137061706Y-110252511D01*
X137050500Y-110201000D01*
X137050500Y-107915782D01*
X137070185Y-107848743D01*
X137086819Y-107828101D01*
X138777136Y-106137785D01*
X138777136Y-106137784D01*
X138777139Y-106137782D01*
X138886631Y-105973915D01*
X138962051Y-105791836D01*
X139000500Y-105598541D01*
X139000500Y-105401460D01*
X139000500Y-105401457D01*
X139000499Y-105401455D01*
X138983050Y-105313733D01*
X138962051Y-105208165D01*
X138886631Y-105026086D01*
X138886630Y-105026085D01*
X138886627Y-105026079D01*
X138777139Y-104862219D01*
X138777136Y-104862215D01*
X138637784Y-104722863D01*
X138637780Y-104722860D01*
X138473920Y-104613372D01*
X138473911Y-104613367D01*
X138291835Y-104537949D01*
X138291827Y-104537947D01*
X138101042Y-104499997D01*
X176994751Y-104499997D01*
X176994751Y-104500002D01*
X177013685Y-104668056D01*
X177069545Y-104827694D01*
X177069547Y-104827697D01*
X177159518Y-104970884D01*
X177159523Y-104970890D01*
X177279109Y-105090476D01*
X177279115Y-105090481D01*
X177422302Y-105180452D01*
X177422305Y-105180454D01*
X177422309Y-105180455D01*
X177422310Y-105180456D01*
X177494913Y-105205860D01*
X177581943Y-105236314D01*
X177749997Y-105255249D01*
X177750000Y-105255249D01*
X177750003Y-105255249D01*
X177918056Y-105236314D01*
X177918059Y-105236313D01*
X178077690Y-105180456D01*
X178134904Y-105144505D01*
X178200876Y-105125500D01*
X200236608Y-105125500D01*
X200236608Y-105125499D01*
X200300978Y-105112696D01*
X200300979Y-105112696D01*
X200320150Y-105108882D01*
X200357452Y-105101463D01*
X200390792Y-105087652D01*
X200471286Y-105054312D01*
X200522509Y-105020084D01*
X200573733Y-104985858D01*
X200660858Y-104898733D01*
X200660858Y-104898731D01*
X200671066Y-104888524D01*
X200671068Y-104888521D01*
X203172771Y-102386818D01*
X203234094Y-102353333D01*
X203260452Y-102350499D01*
X204572871Y-102350499D01*
X204572872Y-102350499D01*
X204632483Y-102344091D01*
X204767331Y-102293796D01*
X204882546Y-102207546D01*
X204968796Y-102092331D01*
X205018002Y-101960401D01*
X205059872Y-101904468D01*
X205125337Y-101880050D01*
X205193610Y-101894901D01*
X205221865Y-101916053D01*
X205343917Y-102038105D01*
X205537421Y-102173600D01*
X205751507Y-102273429D01*
X205751516Y-102273433D01*
X205965000Y-102330634D01*
X205965000Y-101433012D01*
X206022007Y-101465925D01*
X206149174Y-101500000D01*
X206280826Y-101500000D01*
X206407993Y-101465925D01*
X206465000Y-101433012D01*
X206465000Y-102330633D01*
X206678483Y-102273433D01*
X206678492Y-102273429D01*
X206892578Y-102173600D01*
X207086082Y-102038105D01*
X207253105Y-101871082D01*
X207383119Y-101685405D01*
X207437696Y-101641781D01*
X207507195Y-101634588D01*
X207569549Y-101666110D01*
X207586269Y-101685405D01*
X207592824Y-101694767D01*
X207716505Y-101871401D01*
X207883599Y-102038495D01*
X208076624Y-102173653D01*
X208120248Y-102228228D01*
X208129500Y-102275226D01*
X208129500Y-107434548D01*
X208109815Y-107501587D01*
X208093181Y-107522229D01*
X201527229Y-114088181D01*
X201465906Y-114121666D01*
X201439548Y-114124500D01*
X185560453Y-114124500D01*
X185493414Y-114104815D01*
X185472772Y-114088181D01*
X184516973Y-113132383D01*
X184487612Y-113085656D01*
X184486313Y-113081943D01*
X184486313Y-113081941D01*
X184430456Y-112922310D01*
X184430455Y-112922307D01*
X184430452Y-112922302D01*
X184340481Y-112779115D01*
X184340476Y-112779109D01*
X184220890Y-112659523D01*
X184220884Y-112659518D01*
X184077697Y-112569547D01*
X184077694Y-112569545D01*
X183918056Y-112513685D01*
X183750003Y-112494751D01*
X183749997Y-112494751D01*
X183581943Y-112513685D01*
X183422305Y-112569545D01*
X183422302Y-112569547D01*
X183279115Y-112659518D01*
X183279109Y-112659523D01*
X183159523Y-112779109D01*
X183159521Y-112779112D01*
X183104993Y-112865892D01*
X183052658Y-112912183D01*
X182983605Y-112922830D01*
X182919756Y-112894455D01*
X182895007Y-112865892D01*
X182840478Y-112779112D01*
X182840476Y-112779109D01*
X182720890Y-112659523D01*
X182720884Y-112659518D01*
X182577697Y-112569547D01*
X182577694Y-112569545D01*
X182418056Y-112513685D01*
X182250003Y-112494751D01*
X182249997Y-112494751D01*
X182081943Y-112513685D01*
X181922305Y-112569545D01*
X181922302Y-112569547D01*
X181779115Y-112659518D01*
X181779109Y-112659523D01*
X181712681Y-112725952D01*
X181651358Y-112759437D01*
X181581666Y-112754453D01*
X181537319Y-112725952D01*
X181470890Y-112659523D01*
X181470884Y-112659518D01*
X181327697Y-112569547D01*
X181327694Y-112569545D01*
X181168056Y-112513685D01*
X181000003Y-112494751D01*
X180999997Y-112494751D01*
X180831943Y-112513685D01*
X180672305Y-112569545D01*
X180672302Y-112569547D01*
X180529115Y-112659518D01*
X180529109Y-112659523D01*
X180409523Y-112779109D01*
X180409518Y-112779115D01*
X180319547Y-112922302D01*
X180319545Y-112922305D01*
X180263685Y-113081943D01*
X180244751Y-113249997D01*
X180244751Y-113250002D01*
X180263685Y-113418056D01*
X180319545Y-113577694D01*
X180319547Y-113577697D01*
X180409518Y-113720884D01*
X180409523Y-113720890D01*
X180529109Y-113840476D01*
X180529115Y-113840481D01*
X180672302Y-113930452D01*
X180672307Y-113930455D01*
X180672310Y-113930456D01*
X180831941Y-113986313D01*
X180831944Y-113986313D01*
X180835656Y-113987612D01*
X180882383Y-114016973D01*
X183011016Y-116145606D01*
X183011045Y-116145637D01*
X183101264Y-116235856D01*
X183101267Y-116235858D01*
X183178190Y-116287256D01*
X183203710Y-116304309D01*
X183203712Y-116304310D01*
X183203715Y-116304312D01*
X183270396Y-116331931D01*
X183270398Y-116331933D01*
X183317543Y-116351461D01*
X183317548Y-116351463D01*
X183347215Y-116357363D01*
X183373980Y-116362688D01*
X183374000Y-116362691D01*
X183374022Y-116362696D01*
X183438391Y-116375499D01*
X183438392Y-116375500D01*
X183438393Y-116375500D01*
X203061608Y-116375500D01*
X203061608Y-116375499D01*
X203125978Y-116362696D01*
X203125979Y-116362696D01*
X203145150Y-116358882D01*
X203182452Y-116351463D01*
X203215792Y-116337652D01*
X203296286Y-116304312D01*
X203347509Y-116270084D01*
X203398733Y-116235858D01*
X203485858Y-116148733D01*
X203485859Y-116148731D01*
X203492925Y-116141665D01*
X203492928Y-116141661D01*
X214233729Y-105400860D01*
X214233733Y-105400858D01*
X214320858Y-105313733D01*
X214389311Y-105211286D01*
X214389312Y-105211285D01*
X214389313Y-105211282D01*
X214389315Y-105211279D01*
X214389315Y-105211277D01*
X214390605Y-105208164D01*
X214424845Y-105125500D01*
X214436463Y-105097452D01*
X214460500Y-104976606D01*
X214460500Y-102275226D01*
X214480185Y-102208187D01*
X214513374Y-102173654D01*
X214706401Y-102038495D01*
X214873495Y-101871401D01*
X215009035Y-101677830D01*
X215108903Y-101463663D01*
X215170063Y-101235408D01*
X215190659Y-101000000D01*
X215170063Y-100764592D01*
X215108903Y-100536337D01*
X215009035Y-100322171D01*
X215003731Y-100314595D01*
X214873494Y-100128597D01*
X214706402Y-99961506D01*
X214706395Y-99961501D01*
X214512834Y-99825967D01*
X214512830Y-99825965D01*
X214512828Y-99825964D01*
X214298663Y-99726097D01*
X214298659Y-99726096D01*
X214298655Y-99726094D01*
X214070413Y-99664938D01*
X214070403Y-99664936D01*
X213835001Y-99644341D01*
X213834999Y-99644341D01*
X213599596Y-99664936D01*
X213599586Y-99664938D01*
X213371344Y-99726094D01*
X213371335Y-99726098D01*
X213157171Y-99825964D01*
X213157169Y-99825965D01*
X212963597Y-99961505D01*
X212796505Y-100128597D01*
X212666575Y-100314158D01*
X212611998Y-100357783D01*
X212542500Y-100364977D01*
X212480145Y-100333454D01*
X212463425Y-100314158D01*
X212333494Y-100128597D01*
X212166402Y-99961506D01*
X212166395Y-99961501D01*
X211972834Y-99825967D01*
X211972830Y-99825965D01*
X211972828Y-99825964D01*
X211758663Y-99726097D01*
X211758659Y-99726096D01*
X211758655Y-99726094D01*
X211530413Y-99664938D01*
X211530403Y-99664936D01*
X211295001Y-99644341D01*
X211294999Y-99644341D01*
X211059596Y-99664936D01*
X211059586Y-99664938D01*
X210831344Y-99726094D01*
X210831335Y-99726098D01*
X210617171Y-99825964D01*
X210617169Y-99825965D01*
X210423597Y-99961505D01*
X210256505Y-100128597D01*
X210126575Y-100314158D01*
X210071998Y-100357783D01*
X210002500Y-100364977D01*
X209940145Y-100333454D01*
X209923425Y-100314158D01*
X209793494Y-100128597D01*
X209626402Y-99961506D01*
X209626395Y-99961501D01*
X209432834Y-99825967D01*
X209432830Y-99825965D01*
X209432828Y-99825964D01*
X209218663Y-99726097D01*
X209218659Y-99726096D01*
X209218655Y-99726094D01*
X208990413Y-99664938D01*
X208990403Y-99664936D01*
X208755001Y-99644341D01*
X208754999Y-99644341D01*
X208519596Y-99664936D01*
X208519586Y-99664938D01*
X208291344Y-99726094D01*
X208291335Y-99726098D01*
X208077171Y-99825964D01*
X208077169Y-99825965D01*
X207883597Y-99961505D01*
X207716508Y-100128594D01*
X207586269Y-100314595D01*
X207531692Y-100358219D01*
X207462193Y-100365412D01*
X207399839Y-100333890D01*
X207383119Y-100314594D01*
X207253113Y-100128926D01*
X207253108Y-100128920D01*
X207086082Y-99961894D01*
X206892578Y-99826399D01*
X206678492Y-99726570D01*
X206678486Y-99726567D01*
X206465000Y-99669364D01*
X206465000Y-100566988D01*
X206407993Y-100534075D01*
X206280826Y-100500000D01*
X206149174Y-100500000D01*
X206022007Y-100534075D01*
X205965000Y-100566988D01*
X205965000Y-99669364D01*
X205964999Y-99669364D01*
X205751513Y-99726567D01*
X205751507Y-99726570D01*
X205537422Y-99826399D01*
X205537420Y-99826400D01*
X205343926Y-99961886D01*
X205221865Y-100083947D01*
X205160542Y-100117431D01*
X205090850Y-100112447D01*
X205034917Y-100070575D01*
X205018002Y-100039598D01*
X204968797Y-99907671D01*
X204968793Y-99907664D01*
X204882547Y-99792455D01*
X204882544Y-99792452D01*
X204767335Y-99706206D01*
X204767328Y-99706202D01*
X204632482Y-99655908D01*
X204632483Y-99655908D01*
X204572883Y-99649501D01*
X204572881Y-99649500D01*
X204572873Y-99649500D01*
X204572864Y-99649500D01*
X202777129Y-99649500D01*
X202777123Y-99649501D01*
X202717516Y-99655908D01*
X202582671Y-99706202D01*
X202582664Y-99706206D01*
X202467455Y-99792452D01*
X202467452Y-99792455D01*
X202381206Y-99907664D01*
X202381202Y-99907671D01*
X202330908Y-100042517D01*
X202324501Y-100102116D01*
X202324500Y-100102135D01*
X202324500Y-101414546D01*
X202304815Y-101481585D01*
X202288181Y-101502227D01*
X199952229Y-103838181D01*
X199890906Y-103871666D01*
X199864548Y-103874500D01*
X178200876Y-103874500D01*
X178134904Y-103855494D01*
X178077692Y-103819545D01*
X178077691Y-103819544D01*
X178077690Y-103819544D01*
X178036788Y-103805232D01*
X177918056Y-103763685D01*
X177750003Y-103744751D01*
X177749997Y-103744751D01*
X177581943Y-103763685D01*
X177422305Y-103819545D01*
X177422302Y-103819547D01*
X177279115Y-103909518D01*
X177279109Y-103909523D01*
X177159523Y-104029109D01*
X177159518Y-104029115D01*
X177069547Y-104172302D01*
X177069545Y-104172305D01*
X177013685Y-104331943D01*
X176994751Y-104499997D01*
X138101042Y-104499997D01*
X138098543Y-104499500D01*
X138098540Y-104499500D01*
X137901459Y-104499500D01*
X137901456Y-104499500D01*
X137708171Y-104537947D01*
X137708163Y-104537949D01*
X137526087Y-104613367D01*
X137526078Y-104613372D01*
X137362218Y-104722860D01*
X137362214Y-104722863D01*
X135412220Y-106672859D01*
X135412218Y-106672861D01*
X135342538Y-106742540D01*
X135272859Y-106812219D01*
X135163371Y-106976079D01*
X135163364Y-106976092D01*
X135087950Y-107158160D01*
X135087947Y-107158170D01*
X135049500Y-107351456D01*
X135049500Y-108587785D01*
X135029815Y-108654824D01*
X134977011Y-108700579D01*
X134907853Y-108710523D01*
X134901309Y-108709402D01*
X134753495Y-108680000D01*
X134355000Y-108680000D01*
X134355000Y-109380000D01*
X133855000Y-109380000D01*
X133855000Y-108680000D01*
X133456504Y-108680000D01*
X133263318Y-108718427D01*
X133263306Y-108718430D01*
X133081328Y-108793807D01*
X133081315Y-108793814D01*
X132917537Y-108903248D01*
X132917533Y-108903251D01*
X132778251Y-109042533D01*
X132778248Y-109042537D01*
X132668814Y-109206315D01*
X132668807Y-109206328D01*
X132593430Y-109388307D01*
X132593430Y-109388309D01*
X132585138Y-109430000D01*
X131294862Y-109430000D01*
X131286569Y-109388309D01*
X131286569Y-109388307D01*
X131211192Y-109206328D01*
X131211185Y-109206315D01*
X131101751Y-109042537D01*
X131101748Y-109042533D01*
X130962466Y-108903251D01*
X130962462Y-108903248D01*
X130798684Y-108793814D01*
X130798671Y-108793807D01*
X130616693Y-108718430D01*
X130616681Y-108718427D01*
X130423495Y-108680000D01*
X130175000Y-108680000D01*
X130175000Y-109380000D01*
X129675000Y-109380000D01*
X129675000Y-108680000D01*
X129426504Y-108680000D01*
X129233318Y-108718427D01*
X129233306Y-108718430D01*
X129051328Y-108793807D01*
X129051315Y-108793814D01*
X128887537Y-108903248D01*
X128887533Y-108903251D01*
X128748251Y-109042533D01*
X128748248Y-109042537D01*
X128638814Y-109206315D01*
X128638807Y-109206328D01*
X128563430Y-109388307D01*
X128563430Y-109388309D01*
X128555138Y-109430000D01*
X127250000Y-109430000D01*
X127250000Y-102749997D01*
X128195153Y-102749997D01*
X128195153Y-102750002D01*
X128214526Y-103107314D01*
X128214527Y-103107331D01*
X128272415Y-103460431D01*
X128272421Y-103460457D01*
X128368147Y-103805232D01*
X128368149Y-103805239D01*
X128500597Y-104137659D01*
X128500606Y-104137677D01*
X128668218Y-104453827D01*
X128869033Y-104750007D01*
X128996441Y-104900003D01*
X128996442Y-104900004D01*
X130205747Y-103690698D01*
X130279588Y-103792330D01*
X130457670Y-103970412D01*
X130559300Y-104044251D01*
X129347255Y-105256295D01*
X129347256Y-105256296D01*
X129360485Y-105268828D01*
X129360486Y-105268829D01*
X129645367Y-105485388D01*
X129645370Y-105485390D01*
X129951990Y-105669876D01*
X130276739Y-105820122D01*
X130276744Y-105820123D01*
X130615855Y-105934383D01*
X130965339Y-106011311D01*
X131321075Y-106049999D01*
X131321085Y-106050000D01*
X131678915Y-106050000D01*
X131678924Y-106049999D01*
X132034660Y-106011311D01*
X132384144Y-105934383D01*
X132723255Y-105820123D01*
X132723260Y-105820122D01*
X133048009Y-105669876D01*
X133354629Y-105485390D01*
X133354632Y-105485388D01*
X133639504Y-105268836D01*
X133652742Y-105256294D01*
X132440698Y-104044251D01*
X132542330Y-103970412D01*
X132720412Y-103792330D01*
X132794251Y-103690698D01*
X134003556Y-104900003D01*
X134130964Y-104750008D01*
X134130975Y-104749994D01*
X134331781Y-104453827D01*
X134499393Y-104137677D01*
X134499402Y-104137659D01*
X134631850Y-103805239D01*
X134631852Y-103805232D01*
X134727578Y-103460457D01*
X134727584Y-103460431D01*
X134785472Y-103107331D01*
X134785473Y-103107314D01*
X134804847Y-102750002D01*
X134804847Y-102749997D01*
X134785473Y-102392685D01*
X134785472Y-102392668D01*
X134727584Y-102039568D01*
X134727578Y-102039542D01*
X134631852Y-101694767D01*
X134631850Y-101694760D01*
X134499402Y-101362340D01*
X134499393Y-101362322D01*
X134331781Y-101046172D01*
X134130966Y-100749992D01*
X134003557Y-100599995D01*
X134003556Y-100599994D01*
X132794250Y-101809299D01*
X132720412Y-101707670D01*
X132542330Y-101529588D01*
X132440697Y-101455747D01*
X133652743Y-100243703D01*
X133652742Y-100243702D01*
X133639514Y-100231171D01*
X133639513Y-100231170D01*
X133354632Y-100014611D01*
X133354629Y-100014609D01*
X133048009Y-99830123D01*
X132723260Y-99679877D01*
X132723255Y-99679876D01*
X132384144Y-99565616D01*
X132034660Y-99488688D01*
X131678924Y-99450000D01*
X131321075Y-99450000D01*
X130965339Y-99488688D01*
X130615855Y-99565616D01*
X130276744Y-99679876D01*
X130276739Y-99679877D01*
X129951990Y-99830123D01*
X129645370Y-100014609D01*
X129645367Y-100014611D01*
X129360491Y-100231166D01*
X129347256Y-100243703D01*
X129347255Y-100243703D01*
X130559301Y-101455748D01*
X130457670Y-101529588D01*
X130279588Y-101707670D01*
X130205748Y-101809301D01*
X128996442Y-100599994D01*
X128996441Y-100599995D01*
X128869040Y-100749983D01*
X128869033Y-100749993D01*
X128668218Y-101046172D01*
X128500606Y-101362322D01*
X128500597Y-101362340D01*
X128368149Y-101694760D01*
X128368147Y-101694767D01*
X128272421Y-102039542D01*
X128272415Y-102039568D01*
X128214527Y-102392668D01*
X128214526Y-102392685D01*
X128195153Y-102749997D01*
X127250000Y-102749997D01*
X127250000Y-98374000D01*
X127269685Y-98306961D01*
X127322489Y-98261206D01*
X127374000Y-98250000D01*
X166943379Y-98250000D01*
X167010418Y-98269685D01*
G37*
%TD.AperFunction*%
%TA.AperFunction,Conductor*%
G36*
X225193039Y-98269685D02*
G01*
X225238794Y-98322489D01*
X225250000Y-98374000D01*
X225250000Y-100345067D01*
X225230315Y-100412106D01*
X225177511Y-100457861D01*
X225108353Y-100467805D01*
X225044797Y-100438780D01*
X225010807Y-100390964D01*
X224999402Y-100362341D01*
X224999393Y-100362322D01*
X224831781Y-100046172D01*
X224630966Y-99749992D01*
X224503557Y-99599995D01*
X224503556Y-99599994D01*
X223294250Y-100809299D01*
X223220412Y-100707670D01*
X223042330Y-100529588D01*
X222940697Y-100455747D01*
X224152743Y-99243703D01*
X224152742Y-99243702D01*
X224139514Y-99231171D01*
X224139513Y-99231170D01*
X223854632Y-99014611D01*
X223854629Y-99014609D01*
X223548009Y-98830123D01*
X223223260Y-98679877D01*
X223223255Y-98679876D01*
X222884144Y-98565616D01*
X222563794Y-98495101D01*
X222502554Y-98461465D01*
X222469220Y-98400060D01*
X222474376Y-98330380D01*
X222516385Y-98274550D01*
X222581910Y-98250295D01*
X222590451Y-98250000D01*
X225126000Y-98250000D01*
X225193039Y-98269685D01*
G37*
%TD.AperFunction*%
%TD*%
D28*
X168650000Y-104500000D03*
D29*
X177750000Y-104500000D03*
D30*
X197250000Y-112250000D03*
X222250000Y-107250000D03*
D29*
X147275000Y-117135000D03*
D30*
X192250000Y-117250000D03*
X172250000Y-123250000D03*
X175250000Y-111250000D03*
X164250000Y-106250000D03*
X139250000Y-122250000D03*
X155250000Y-123250000D03*
X136250000Y-122250000D03*
X184250000Y-111250000D03*
X170250000Y-111250000D03*
X158250000Y-101250000D03*
X208250000Y-116250000D03*
X184250000Y-106250000D03*
X216250000Y-123250000D03*
X156250000Y-110250000D03*
X160250000Y-122250000D03*
X207250000Y-123250000D03*
X211250000Y-116250000D03*
D28*
X149075000Y-108750000D03*
D30*
X160250000Y-107250000D03*
X192250000Y-113250000D03*
X132250000Y-114250000D03*
X211250000Y-117250000D03*
X156250000Y-102250000D03*
X220250000Y-123250000D03*
X221250000Y-109250000D03*
X148250000Y-101250000D03*
X211250000Y-113250000D03*
X215250000Y-119250000D03*
D28*
X149750000Y-116500000D03*
D29*
X158120000Y-120675000D03*
D30*
X184250000Y-108250000D03*
X200250000Y-110250000D03*
X209250000Y-115250000D03*
X176250000Y-112250000D03*
X168250000Y-123250000D03*
X162250000Y-111250000D03*
X200250000Y-106250000D03*
X157250000Y-110250000D03*
D29*
X146787500Y-105500000D03*
D30*
X208250000Y-114250000D03*
X152250000Y-101250000D03*
X212250000Y-110250000D03*
X191250000Y-118250000D03*
X208250000Y-117250000D03*
X139500000Y-113500000D03*
X213250000Y-112250000D03*
X210250000Y-115250000D03*
X218250000Y-106250000D03*
X161250000Y-123250000D03*
X221250000Y-107250000D03*
X160250000Y-108250000D03*
X130250000Y-115250000D03*
X222250000Y-108250000D03*
X161250000Y-111250000D03*
X157250000Y-102250000D03*
X211250000Y-123250000D03*
X210250000Y-118250000D03*
X199250000Y-111250000D03*
X138750000Y-113500000D03*
X193250000Y-101250000D03*
X160250000Y-110250000D03*
X166250000Y-123250000D03*
X222250000Y-109250000D03*
X162250000Y-105250000D03*
X154250000Y-110250000D03*
X163250000Y-105250000D03*
X213250000Y-113250000D03*
X213250000Y-116250000D03*
X131250000Y-112250000D03*
X155250000Y-101250000D03*
X155250000Y-122250000D03*
X137250000Y-122250000D03*
X179250000Y-106250000D03*
X140250000Y-104250000D03*
X176250000Y-109250000D03*
X211250000Y-111250000D03*
X219250000Y-123250000D03*
X138250000Y-123250000D03*
X167250000Y-123250000D03*
X131250000Y-107250000D03*
X201250000Y-107250000D03*
X211250000Y-118250000D03*
X222250000Y-123250000D03*
X216250000Y-101250000D03*
X176250000Y-108250000D03*
X190250000Y-113250000D03*
X209250000Y-123250000D03*
X191250000Y-117250000D03*
X212250000Y-118250000D03*
X163250000Y-106250000D03*
X209250000Y-116250000D03*
X212250000Y-116250000D03*
X218250000Y-109250000D03*
X211250000Y-112250000D03*
X216250000Y-103250000D03*
X190250000Y-118250000D03*
X217250000Y-123250000D03*
X200250000Y-107250000D03*
X198250000Y-113250000D03*
X215250000Y-109250000D03*
X137250000Y-123250000D03*
X194250000Y-117250000D03*
X197250000Y-113250000D03*
X189250000Y-117250000D03*
X206250000Y-116250000D03*
X199250000Y-110250000D03*
X207250000Y-115250000D03*
X194250000Y-101250000D03*
X156250000Y-101250000D03*
X209250000Y-119250000D03*
X184250000Y-110250000D03*
X198250000Y-110250000D03*
X151250000Y-101250000D03*
X193250000Y-113250000D03*
X212250000Y-123250000D03*
X220250000Y-107250000D03*
X175250000Y-110250000D03*
X166250000Y-101250000D03*
X212250000Y-114250000D03*
X131250000Y-116250000D03*
X213250000Y-123250000D03*
X160250000Y-109250000D03*
X175250000Y-112250000D03*
X140250000Y-122250000D03*
X131250000Y-115250000D03*
X198250000Y-111250000D03*
X191250000Y-113250000D03*
X213250000Y-115250000D03*
X136250000Y-123250000D03*
X201250000Y-108250000D03*
X175250000Y-108250000D03*
X219250000Y-108250000D03*
X202250000Y-110250000D03*
X212250000Y-112250000D03*
X130250000Y-107250000D03*
X182250000Y-106250000D03*
X193250000Y-117250000D03*
X209250000Y-117250000D03*
X160250000Y-111250000D03*
X220250000Y-108250000D03*
X176250000Y-107250000D03*
X169250000Y-123250000D03*
X213250000Y-111250000D03*
X196250000Y-112250000D03*
X212250000Y-115250000D03*
X202250000Y-109250000D03*
X210250000Y-112250000D03*
X175250000Y-109250000D03*
X216250000Y-109250000D03*
X160250000Y-121250000D03*
X197250000Y-110250000D03*
X217250000Y-119250000D03*
X211250000Y-119250000D03*
X215250000Y-123250000D03*
X193250000Y-102250000D03*
X212250000Y-119250000D03*
X155250000Y-102250000D03*
X217250000Y-101250000D03*
X218250000Y-123250000D03*
X217250000Y-102250000D03*
D29*
X163880000Y-121325000D03*
D30*
X210250000Y-123250000D03*
X197250000Y-111250000D03*
X221250000Y-106250000D03*
X130250000Y-116250000D03*
D29*
X158120000Y-121325000D03*
D30*
X210250000Y-117250000D03*
X210250000Y-113250000D03*
X195250000Y-112250000D03*
X201250000Y-110250000D03*
X189250000Y-112250000D03*
X131250000Y-113250000D03*
X155250000Y-110250000D03*
X149250000Y-101250000D03*
X202250000Y-107250000D03*
X220250000Y-109250000D03*
X194250000Y-113250000D03*
X202250000Y-106250000D03*
X139250000Y-123250000D03*
X219250000Y-107250000D03*
X206250000Y-123250000D03*
X159250000Y-110250000D03*
X201250000Y-106250000D03*
X140250000Y-123250000D03*
X161250000Y-106250000D03*
X218250000Y-107250000D03*
X210250000Y-119250000D03*
X213250000Y-109250000D03*
X213250000Y-117250000D03*
X192250000Y-118250000D03*
X213250000Y-110250000D03*
X163250000Y-101250000D03*
X159250000Y-101250000D03*
X216250000Y-119250000D03*
X160250000Y-123250000D03*
X212250000Y-111250000D03*
X200250000Y-111250000D03*
X184250000Y-107250000D03*
X159250000Y-111250000D03*
X132250000Y-115250000D03*
X158250000Y-110250000D03*
X218250000Y-108250000D03*
X165250000Y-101250000D03*
X180250000Y-106250000D03*
X161250000Y-101250000D03*
X216250000Y-102250000D03*
X181250000Y-106250000D03*
X213250000Y-118250000D03*
X161250000Y-121250000D03*
X192250000Y-102250000D03*
X164250000Y-105250000D03*
D29*
X163880000Y-120675000D03*
D30*
X154250000Y-123250000D03*
X211250000Y-114250000D03*
X165250000Y-107250000D03*
X162250000Y-101250000D03*
X213250000Y-119250000D03*
X207250000Y-116250000D03*
X162250000Y-106250000D03*
X176250000Y-110250000D03*
X199250000Y-112250000D03*
X210250000Y-116250000D03*
X138250000Y-122250000D03*
X214250000Y-119250000D03*
X196250000Y-111250000D03*
X189250000Y-113250000D03*
X217250000Y-109250000D03*
X193250000Y-118250000D03*
X195250000Y-113250000D03*
X184250000Y-109250000D03*
X176250000Y-111250000D03*
X210250000Y-114250000D03*
X130250000Y-114250000D03*
X221250000Y-123250000D03*
X161250000Y-122250000D03*
X190250000Y-117250000D03*
X209250000Y-113250000D03*
X217250000Y-103250000D03*
X183250000Y-106250000D03*
X211250000Y-115250000D03*
X208250000Y-115250000D03*
X220250000Y-106250000D03*
X212250000Y-117250000D03*
X213250000Y-114250000D03*
X215250000Y-103250000D03*
X202250000Y-108250000D03*
X161250000Y-110250000D03*
X212250000Y-113250000D03*
X131250000Y-114250000D03*
X205250000Y-107250000D03*
X208250000Y-123250000D03*
X219250000Y-109250000D03*
X158250000Y-111250000D03*
X130250000Y-113250000D03*
X214250000Y-109250000D03*
X201250000Y-109250000D03*
X166250000Y-122250000D03*
X175250000Y-107250000D03*
X198250000Y-112250000D03*
X222250000Y-106250000D03*
X140250000Y-103250000D03*
X200250000Y-108250000D03*
X209250000Y-114250000D03*
X170250000Y-123250000D03*
X130250000Y-112250000D03*
X214250000Y-123250000D03*
X205250000Y-123250000D03*
X221250000Y-108250000D03*
X164250000Y-101250000D03*
X154250000Y-101250000D03*
X200250000Y-109250000D03*
X209250000Y-118250000D03*
X171250000Y-123250000D03*
X150250000Y-101250000D03*
X219250000Y-106250000D03*
X196250000Y-113250000D03*
X153250000Y-101250000D03*
X194250000Y-118250000D03*
D29*
X147275000Y-114595000D03*
D30*
X157250000Y-101250000D03*
X160250000Y-101250000D03*
D29*
X156000000Y-115750000D03*
D28*
X166250000Y-117500000D03*
X138000000Y-105500000D03*
X152500000Y-120000000D03*
D29*
X181000000Y-113250000D03*
X182250000Y-113250000D03*
X183750000Y-113250000D03*
X180500000Y-120250000D03*
X171000000Y-117750000D03*
D28*
X179121232Y-119371232D03*
X144461240Y-110650981D03*
X178378768Y-118628768D03*
X146250000Y-111250000D03*
D29*
X143250000Y-121500000D03*
X151500000Y-122250000D03*
D28*
X222000000Y-101750000D03*
X131500000Y-102750000D03*
X133605000Y-111110000D03*
X133605000Y-116890000D03*
D31*
X134105000Y-109680000D03*
D32*
X129925000Y-109680000D03*
D31*
X134105000Y-118320000D03*
D32*
X129925000Y-118320000D03*
D28*
X131500000Y-122750000D03*
X203675000Y-101000000D03*
X206215000Y-101000000D03*
X208755000Y-101000000D03*
X211295000Y-101000000D03*
X213835000Y-101000000D03*
X215680000Y-106000000D03*
M02*
